<svg width="181" height="32" viewBox="0 0 181 32" fill="none" xmlns="http://www.w3.org/2000/svg">
<path d="M8.05934 16.015L13.1691 7.22919L18.3533 7.21422V0L9.11704 0.0449018L0 16.0449L9.25111 32L18.3533 31.9551V24.9804H13.2435L8.05934 16.015Z" fill="#FFCB06"/>
<path d="M28.677 16.0151L23.5523 24.9805H18.3532V7.21436H23.4928L28.677 16.0151Z" fill="#FFCB06"/>
<path d="M48.7434 14.2337C44.6169 13.6201 43.7082 13.1561 43.7082 12.2281C43.7082 11.3001 44.8701 10.5219 47.6261 10.5219C49.7862 10.5219 52.0207 11.0607 53.9872 11.8689C54.4937 12.0635 54.9555 12.288 55.4173 12.4975V8.4414C55.3875 8.42643 55.3577 8.41147 55.313 8.3965C53.1529 7.46853 50.8588 6.97461 47.8495 6.97461C42.4717 6.97461 38.9262 9.38434 38.9262 12.4676C38.9262 15.8951 41.8013 17.1074 47.4622 17.9157C51.4398 18.4844 52.423 18.9185 52.423 19.9213C52.423 21.0438 50.963 21.7772 47.7304 21.7772C45.6448 21.7772 43.1719 21.1935 41.0416 20.3404C40.5202 20.1308 39.82 19.8016 39.2539 19.5022V23.5733C39.4178 23.6481 39.5966 23.723 39.7157 23.7679C42.1142 24.7408 44.8403 25.3394 47.9538 25.3394C53.1827 25.3394 57.2198 23.2141 57.2198 19.7267C57.2347 16.2992 54.5384 15.0719 48.7434 14.2337Z" fill="black"/>
<path d="M91.7067 24.9804H87.1183V7.33398H98.6189C103.446 7.33398 106.008 9.4743 106.008 13.1113C106.008 15.9701 104.131 17.856 101.39 18.6043L106.872 24.9953H101.628L96.5333 18.9486H91.7067V24.9804ZM91.7067 15.5211H97.5165C100.079 15.5211 101.375 14.7577 101.375 13.1862C101.375 11.7044 100.317 10.8812 97.74 10.8812H91.7216V15.5211H91.7067Z" fill="black"/>
<path d="M127.504 21.8373H117.419L115.87 24.9954H111.088L120.026 7.22925H125.032L134 24.9954H129.039L127.504 21.8373ZM119.013 18.6044H125.925L122.499 11.5847H122.439L119.013 18.6044Z" fill="black"/>
<path d="M172.821 21.8373H162.736L161.187 24.9954H156.42L165.358 7.22925H170.363L179.332 24.9954H174.371L172.821 21.8373ZM164.33 18.6044H171.242L167.816 11.5847H167.756L164.33 18.6044Z" fill="black"/>
<path d="M177.32 7.30396H178.78V7.67814H178.289V9.12996H177.827V7.67814H177.32V7.30396Z" fill="black"/>
<path d="M181 7.30396V9.12996H180.583V8.08225C180.583 8.06729 180.583 8.05232 180.583 8.02238L180.166 8.84558C180.151 8.87552 180.121 8.90545 180.091 8.92042C180.061 8.93539 180.032 8.95035 180.002 8.95035H179.942C179.913 8.95035 179.868 8.93539 179.853 8.92042C179.823 8.90545 179.808 8.87552 179.778 8.84558L179.361 8.02238C179.361 8.03735 179.361 8.06729 179.361 8.08225V9.12996H178.944V7.30396H179.332C179.346 7.30396 179.361 7.30396 179.376 7.31892C179.391 7.31892 179.406 7.33389 179.406 7.34886C179.421 7.36382 179.421 7.37879 179.436 7.39376L179.898 8.30676C179.913 8.3367 179.927 8.36663 179.942 8.41153C179.942 8.4265 179.957 8.44147 179.957 8.45643C179.972 8.44147 179.972 8.4265 179.987 8.39657C180.002 8.36663 180.017 8.32173 180.032 8.29179L180.493 7.39376C180.508 7.37879 180.508 7.36382 180.523 7.34886C180.538 7.33389 180.553 7.33389 180.568 7.31892C180.583 7.31892 180.598 7.31892 180.613 7.30396H181Z" fill="black"/>
<path d="M135.564 11.0608H142.968V24.9803H147.884V11.0608H155.302V7.24414H135.564V11.0608Z" fill="black"/>
<path d="M61.2867 11.0608H68.7055V24.9803H73.6216V11.0608H81.0403V7.24414H61.2867V11.0608Z" fill="black"/>
</svg>
