<svg width="535" height="424" viewBox="0 0 535 424" fill="none" xmlns="http://www.w3.org/2000/svg">
<ellipse opacity="0.1" cx="267.5" cy="263" rx="267.5" ry="161" fill="#CACACA"/>
<rect width="125" height="22" transform="matrix(0.866025 -0.5 0.866025 0.5 355 251.5)" fill="url(#paint0_linear)"/>
<path d="M376.667 258.016C376.667 249.823 370.026 243.182 361.834 243.182C353.641 243.182 347 249.823 347 258.016C347 266.208 353.641 272.849 361.834 272.849C370.026 272.849 376.667 266.208 376.667 258.016Z" fill="url(#paint1_linear)"/>
<path d="M361.834 243.182C359.585 243.184 357.367 243.7 355.348 244.691C353.035 245.982 351.022 247.749 349.442 249.874C347.847 252.29 346.998 255.122 347 258.017C347 258.382 347.029 258.739 347.055 259.096C347.879 262.575 350.903 265.074 355.397 265.375C362.232 265.832 369.846 261.055 372.405 254.7C373.362 252.328 373.476 250.073 372.889 248.153C371.502 246.59 369.8 245.339 367.895 244.482C365.989 243.625 363.923 243.182 361.834 243.182Z" fill="url(#paint2_linear)"/>
<rect width="125" height="22" transform="matrix(0.866025 -0.5 0.866025 0.5 337 209.5)" fill="url(#paint3_linear)"/>
<path d="M359.667 215.016C359.667 206.823 353.026 200.182 344.834 200.182C336.641 200.182 330 206.823 330 215.016C330 223.208 336.641 229.849 344.834 229.849C353.026 229.849 359.667 223.208 359.667 215.016Z" fill="url(#paint4_linear)"/>
<path d="M344.834 200.182C342.585 200.184 340.367 200.7 338.348 201.691C336.035 202.982 334.022 204.749 332.442 206.874C330.847 209.29 329.998 212.122 330 215.017C330 215.382 330.029 215.739 330.055 216.096C330.879 219.575 333.903 222.074 338.397 222.375C345.232 222.832 352.846 218.055 355.405 211.7C356.362 209.328 356.476 207.073 355.889 205.153C354.502 203.59 352.8 202.339 350.895 201.482C348.989 200.625 346.923 200.182 344.834 200.182Z" fill="url(#paint5_linear)"/>
<rect width="125" height="22" transform="matrix(0.866025 -0.5 0.866025 0.5 287 187.5)" fill="url(#paint6_linear)"/>
<path d="M191.765 136.421L188 134.245V12.8976L191.765 15.0737V136.421Z" fill="#353A45"/>
<path d="M191.765 136.421L195.531 134.245V12.8976L191.765 15.0737V136.421Z" fill="#242830"/>
<path d="M230.348 154.099L193.783 132.986V18.0812L230.348 39.1818V154.099Z" fill="#162E48"/>
<path d="M229.676 107.496L194.443 87.1534V76.1141L229.676 96.4446V107.496Z" fill="url(#paint7_linear)"/>
<path d="M208.294 88.3759L198.99 82.9968V80.8085L208.294 86.1754V88.3759Z" fill="#1D3A5A"/>
<path d="M208.294 93.0826L198.99 87.7035V85.5152L208.294 90.8821V93.0826Z" fill="#1D3A5A"/>
<path d="M216.057 92.2757L211.399 89.5862V87.9602L216.057 90.6498V92.2757Z" fill="white"/>
<path d="M225.128 97.5204L220.482 94.8308V93.2171L225.128 95.8944V97.5204Z" fill="white"/>
<path d="M215.384 96.8847L210.739 94.1951V92.5814L215.384 95.2709V96.8847Z" fill="white"/>
<path d="M219.993 99.4153L218.16 98.3517V96.738L219.993 97.8016V99.4153Z" fill="white"/>
<path d="M224.639 102.227L222.805 101.176V99.5498L224.639 100.613V102.227Z" fill="white"/>
<path d="M229.676 118.817L194.443 98.474V87.4346L229.676 107.765V118.817Z" fill="url(#paint8_linear)"/>
<path d="M201.643 98.2784L199.871 97.2515V94.9287L201.643 95.9434V98.2784Z" fill="white"/>
<path d="M209.186 102.618L207.414 101.604V99.2685L209.186 100.295V102.618Z" fill="white"/>
<path d="M216.717 106.97L214.944 105.944V103.621L216.717 104.648V106.97Z" fill="white"/>
<path d="M224.248 111.323L222.475 110.296V107.973L224.248 109V111.323Z" fill="white"/>
<path d="M229.676 96.1756L194.443 75.8329V64.7936L229.676 85.1363V96.1756Z" fill="url(#paint9_linear)"/>
<path d="M217.157 84.5862L201.203 75.3806V73.0578L217.157 82.2634V84.5862Z" fill="white"/>
<path d="M229.676 130.137L194.443 109.794V98.7429L229.676 119.086V130.137Z" fill="url(#paint10_linear)"/>
<path d="M201.643 109.587L199.871 108.572V106.249L201.643 107.264V109.587Z" fill="white"/>
<path d="M209.186 113.939L207.414 112.912V110.589L209.186 111.616V113.939Z" fill="white"/>
<path d="M216.717 118.291L214.944 117.264V114.941L216.717 115.968V118.291Z" fill="white"/>
<path d="M224.248 122.643L222.475 121.616V119.293L224.248 120.32V122.643Z" fill="white"/>
<path d="M229.676 141.458L194.443 121.115V110.076L229.676 130.406V141.458Z" fill="url(#paint11_linear)"/>
<path d="M201.643 120.907L199.871 119.893V117.57L201.643 118.584V120.907Z" fill="white"/>
<path d="M209.186 125.259L207.414 124.232V121.91L209.186 122.936V125.259Z" fill="white"/>
<path d="M216.717 129.612L214.944 128.585V126.262L216.717 127.289V129.612Z" fill="#1D3A5A"/>
<path d="M224.248 133.964L222.475 132.937V130.614L224.248 131.641V133.964Z" fill="white"/>
<path d="M229.676 152.778L194.443 132.435V121.396L229.676 141.727V152.778Z" fill="url(#paint12_linear)"/>
<path d="M201.643 132.228L199.871 131.213V128.878L201.643 129.905V132.228Z" fill="white"/>
<path d="M209.186 136.58L207.414 135.553V133.23L209.186 134.257V136.58Z" fill="white"/>
<path d="M216.717 140.932L214.944 139.905V137.582L216.717 138.609V140.932Z" fill="white"/>
<path d="M224.248 145.284L222.475 144.257V141.934L224.248 142.961V145.284Z" fill="white"/>
<path d="M229.676 50.8935L194.443 30.5508V19.5114L229.676 39.8542V50.8935Z" fill="url(#paint13_linear)"/>
<path d="M201.643 30.3552L199.871 29.3283V27.0055L201.643 28.0324V30.3552Z" fill="white"/>
<path d="M209.186 34.7074L207.414 33.6805V31.3577L209.186 32.3724V34.7074Z" fill="white"/>
<path d="M216.717 39.0473L214.944 38.0326V35.6976L216.717 36.7245V39.0473Z" fill="white"/>
<path d="M224.248 43.3995L222.475 42.3726V40.0498L224.248 41.0767V43.3995Z" fill="#1D3A5A"/>
<path d="M229.676 62.214L194.443 41.8713V30.832L229.676 51.1747V62.214Z" fill="url(#paint14_linear)"/>
<path d="M201.643 41.6757L199.871 40.6488V38.326L201.643 39.3529V41.6757Z" fill="white"/>
<path d="M209.186 46.0157L207.414 45.001V42.6783L209.186 43.6929V46.0157Z" fill="white"/>
<path d="M216.717 50.3678L214.944 49.3531V47.0181L216.717 48.045V50.3678Z" fill="white"/>
<path d="M224.248 54.72L222.475 53.6931V51.3703L224.248 52.3972V54.72Z" fill="white"/>
<path d="M229.676 73.5345L194.443 53.1918V42.1525L229.676 62.4952V73.5345Z" fill="url(#paint15_linear)"/>
<path d="M201.643 52.9963L199.871 51.9693V49.6465L201.643 50.6735V52.9963Z" fill="#1D3A5A"/>
<path d="M209.186 57.3362L207.414 56.3216V53.9988L209.186 55.0135V57.3362Z" fill="white"/>
<path d="M216.717 61.6883L214.944 60.6614V58.3386L216.717 59.3655V61.6883Z" fill="white"/>
<path d="M224.248 66.0406L222.475 65.0137V62.6909L224.248 63.7178V66.0406Z" fill="white"/>
<path d="M229.676 84.8551L194.443 64.5124V53.473L229.676 73.8035V84.8551Z" fill="url(#paint16_linear)"/>
<path d="M201.643 64.3168L199.871 63.2899V60.9671L201.643 61.9818V64.3168Z" fill="white"/>
<path d="M209.186 68.6568L207.414 67.6421V65.3193L209.186 66.334V68.6568Z" fill="white"/>
<path d="M216.717 73.0089L214.944 71.9942V69.6592L216.717 70.6861V73.0089Z" fill="#1D3A5A"/>
<path d="M224.248 77.361L222.475 76.3341V74.0113L224.248 75.0382V77.361Z" fill="white"/>
<path d="M233.698 160.456L229.932 158.279V36.9323L233.698 39.0717V160.456Z" fill="#353A45"/>
<path d="M233.698 160.456L259.42 147.362V26.0153L233.698 39.0718V160.456Z" fill="#242830"/>
<path d="M233.698 39.0717L188 12.9709L213.722 0L259.42 26.0152L233.698 39.0717Z" fill="#454A56"/>
<path d="M233.698 39.0718L188 12.971V17.2987L233.698 43.3139V39.0718Z" fill="#353A45"/>
<path d="M239.358 163.561L235.593 161.385V40.0376L239.358 42.2136V163.561Z" fill="#353A45"/>
<path d="M239.358 163.561L243.123 161.385V40.0376L239.358 42.2136V163.561Z" fill="#242830"/>
<path d="M277.928 181.238L241.375 160.126V45.221L277.928 66.3217V181.238Z" fill="#193866"/>
<path d="M277.268 134.636L242.035 114.293V103.242L277.268 123.584V134.636Z" fill="url(#paint17_linear)"/>
<path d="M255.886 115.504L246.583 110.137V107.936L255.886 113.315V115.504Z" fill="#1D3A5A"/>
<path d="M255.886 120.21L246.583 114.843V112.643L255.886 118.022V120.21Z" fill="#1D3A5A"/>
<path d="M263.637 119.403L258.979 116.726V115.1L263.637 117.79V119.403Z" fill="white"/>
<path d="M272.721 124.648L268.063 121.971V120.345L272.721 123.034V124.648Z" fill="white"/>
<path d="M262.977 124.025L258.319 121.335V119.721L262.977 122.399V124.025Z" fill="white"/>
<path d="M267.574 126.555L265.74 125.492V123.878L267.574 124.929V126.555Z" fill="white"/>
<path d="M272.232 129.367L270.398 128.303V126.69L272.232 127.741V129.367Z" fill="white"/>
<path d="M277.268 145.957L242.035 125.614V114.562L277.268 134.905V145.957Z" fill="url(#paint18_linear)"/>
<path d="M249.236 125.406L247.463 124.379V122.056L249.236 123.083V125.406Z" fill="white"/>
<path d="M256.767 129.758L254.994 128.731V126.409L256.767 127.435V129.758Z" fill="white"/>
<path d="M264.297 134.11L262.525 133.083V130.761L264.297 131.788V134.11Z" fill="white"/>
<path d="M271.84 138.463L270.068 137.436V135.113L271.84 136.128V138.463Z" fill="white"/>
<path d="M277.268 123.315L242.035 102.973V91.9212L277.268 112.264V123.315Z" fill="url(#paint19_linear)"/>
<path d="M264.75 111.726L248.796 102.508V100.185L264.75 109.403V111.726Z" fill="white"/>
<path d="M277.268 157.265L242.035 136.934V125.883L277.268 146.225V157.265Z" fill="url(#paint20_linear)"/>
<path d="M249.236 136.727L247.463 135.7V133.377L249.236 134.404V136.727Z" fill="#1D3A5A"/>
<path d="M256.767 141.079L254.994 140.052V137.729L256.767 138.756V141.079Z" fill="white"/>
<path d="M264.297 145.431L262.525 144.404V142.081L264.297 143.096V145.431Z" fill="#1D3A5A"/>
<path d="M271.84 149.771L270.068 148.756V146.433L271.84 147.448V149.771Z" fill="white"/>
<path d="M277.268 168.585L242.035 148.255V137.203L277.268 157.546V168.585Z" fill="url(#paint21_linear)"/>
<path d="M249.236 148.047L247.463 147.02V144.697L249.236 145.724V148.047Z" fill="white"/>
<path d="M256.767 152.399L254.994 151.372V149.05L256.767 150.076V152.399Z" fill="white"/>
<path d="M264.297 156.751L262.525 155.724V153.402L264.297 154.429V156.751Z" fill="#1D3A5A"/>
<path d="M271.84 161.091L270.068 160.077V157.754L271.84 158.768V161.091Z" fill="white"/>
<path d="M277.268 179.906L242.035 159.575V148.524L277.268 168.867V179.906Z" fill="url(#paint22_linear)"/>
<path d="M249.236 159.368L247.463 158.341V156.018L249.236 157.045V159.368Z" fill="white"/>
<path d="M256.767 163.72L254.994 162.693V160.37L256.767 161.397V163.72Z" fill="white"/>
<path d="M264.297 168.072L262.525 167.045V164.722L264.297 165.749V168.072Z" fill="#1D3A5A"/>
<path d="M271.84 172.412L270.068 171.397V169.074L271.84 170.089V172.412Z" fill="white"/>
<path d="M277.268 78.0335L242.035 57.6908V46.6392L277.268 66.9819V78.0335Z" fill="url(#paint23_linear)"/>
<path d="M249.236 57.4828L247.463 56.4681V54.1453L249.236 55.16V57.4828Z" fill="white"/>
<path d="M256.767 61.835L254.994 60.8081V58.4853L256.767 59.5123V61.835Z" fill="#1D3A5A"/>
<path d="M264.297 66.1873L262.525 65.1604V62.8376L264.297 63.8645V66.1873Z" fill="white"/>
<path d="M271.84 70.5393L270.068 69.5124V67.1896L271.84 68.2165V70.5393Z" fill="white"/>
<path d="M277.268 89.354L242.035 69.0113V57.972L277.268 78.3025V89.354Z" fill="url(#paint24_linear)"/>
<path d="M249.236 68.8033L247.463 67.7886V65.4659L249.236 66.4805V68.8033Z" fill="white"/>
<path d="M256.767 73.1555L254.994 72.1408V69.8058L256.767 70.8328V73.1555Z" fill="white"/>
<path d="M264.297 77.5078L262.525 76.4809V74.1581L264.297 75.185V77.5078Z" fill="#1D3A5A"/>
<path d="M271.84 81.8599L270.068 80.833V78.5102L271.84 79.5371V81.8599Z" fill="white"/>
<path d="M277.268 100.675L242.035 80.3318V69.2803L277.268 89.623V100.675Z" fill="url(#paint25_linear)"/>
<path d="M249.236 80.1239L247.463 79.1092V76.7742L249.236 77.8011V80.1239Z" fill="white"/>
<path d="M256.767 84.4761L254.994 83.4492V81.1264L256.767 82.1533V84.4761Z" fill="white"/>
<path d="M264.297 88.8283L262.525 87.8014V85.4786L264.297 86.5055V88.8283Z" fill="white"/>
<path d="M271.84 93.1804L270.068 92.1535V89.8307L271.84 90.8576V93.1804Z" fill="white"/>
<path d="M277.268 111.995L242.035 91.6524V80.6008L277.268 100.944V111.995Z" fill="url(#paint26_linear)"/>
<path d="M249.236 91.4444L247.463 90.4297V88.1069L249.236 89.1216V91.4444Z" fill="white"/>
<path d="M256.767 95.7966L254.994 94.7697V92.4469L256.767 93.4739V95.7966Z" fill="white"/>
<path d="M264.297 100.149L262.525 99.1219V96.7992L264.297 97.8261V100.149Z" fill="white"/>
<path d="M271.84 104.501L270.068 103.474V101.151L271.84 102.178V104.501Z" fill="white"/>
<path d="M281.278 187.583L277.513 185.419V64.0723L281.278 66.2117V187.583Z" fill="#353A45"/>
<path d="M281.278 187.583L307 174.502V53.1552L281.278 66.2117V187.583Z" fill="#242830"/>
<path d="M281.278 66.2116L235.593 40.1109L261.314 27.14L307 53.1551L281.278 66.2116Z" fill="#454A56"/>
<path d="M281.278 66.2116L235.593 40.1108V44.4386L281.278 70.4538V66.2116Z" fill="#353A45"/>
<path d="M310.667 192.016C310.667 183.823 304.026 177.182 295.834 177.182C287.641 177.182 281 183.823 281 192.016C281 200.208 287.641 206.849 295.834 206.849C304.026 206.849 310.667 200.208 310.667 192.016Z" fill="url(#paint27_linear)"/>
<path d="M295.834 177.182C293.585 177.184 291.367 177.7 289.348 178.691C287.035 179.982 285.022 181.749 283.442 183.874C281.847 186.29 280.998 189.122 281 192.017C281 192.382 281.029 192.739 281.055 193.096C281.879 196.575 284.903 199.074 289.397 199.375C296.232 199.832 303.846 195.055 306.405 188.7C307.362 186.328 307.476 184.073 306.889 182.153C305.502 180.59 303.8 179.339 301.895 178.482C299.989 177.625 297.923 177.182 295.834 177.182Z" fill="url(#paint28_linear)"/>
<path opacity="0.2" d="M293.819 188.954C297.23 186.942 298.899 183.451 297.545 181.156C296.192 178.861 292.329 178.631 288.917 180.643C285.505 182.655 283.837 186.147 285.19 188.442C286.544 190.737 290.407 190.966 293.819 188.954Z" fill="#FBBD2B"/>
<path d="M412.765 245.421L409 243.245V121.898L412.765 124.074V245.421Z" fill="#353A45"/>
<path d="M412.765 245.421L416.531 243.245V121.898L412.765 124.074V245.421Z" fill="#242830"/>
<path d="M451.348 263.099L414.783 241.986V127.081L451.348 148.182V263.099Z" fill="#162E48"/>
<path d="M450.676 216.496L415.443 196.153V185.114L450.676 205.445V216.496Z" fill="url(#paint29_linear)"/>
<path d="M429.294 197.376L419.99 191.997V189.809L429.294 195.175V197.376Z" fill="#1D3A5A"/>
<path d="M429.294 202.083L419.99 196.704V194.515L429.294 199.882V202.083Z" fill="#1D3A5A"/>
<path d="M437.057 201.276L432.399 198.586V196.96L437.057 199.65V201.276Z" fill="white"/>
<path d="M446.128 206.52L441.482 203.831V202.217L446.128 204.894V206.52Z" fill="white"/>
<path d="M436.384 205.885L431.739 203.195V201.581L436.384 204.271V205.885Z" fill="white"/>
<path d="M440.993 208.415L439.16 207.352V205.738L440.993 206.802V208.415Z" fill="white"/>
<path d="M445.639 211.227L443.805 210.176V208.55L445.639 209.613V211.227Z" fill="white"/>
<path d="M450.676 227.817L415.443 207.474V196.435L450.676 216.765V227.817Z" fill="url(#paint30_linear)"/>
<path d="M422.643 207.278L420.871 206.251V203.929L422.643 204.943V207.278Z" fill="white"/>
<path d="M430.186 211.618L428.414 210.604V208.269L430.186 209.295V211.618Z" fill="white"/>
<path d="M437.717 215.97L435.944 214.944V212.621L437.717 213.648V215.97Z" fill="white"/>
<path d="M445.248 220.323L443.475 219.296V216.973L445.248 218V220.323Z" fill="white"/>
<path d="M450.676 205.176L415.443 184.833V173.794L450.676 194.136V205.176Z" fill="url(#paint31_linear)"/>
<path d="M438.157 193.586L422.203 184.381V182.058L438.157 191.263V193.586Z" fill="white"/>
<path d="M450.676 239.137L415.443 218.794V207.743L450.676 228.086V239.137Z" fill="url(#paint32_linear)"/>
<path d="M422.643 218.587L420.871 217.572V215.249L422.643 216.264V218.587Z" fill="white"/>
<path d="M430.186 222.939L428.414 221.912V219.589L430.186 220.616V222.939Z" fill="white"/>
<path d="M437.717 227.291L435.944 226.264V223.941L437.717 224.968V227.291Z" fill="white"/>
<path d="M445.248 231.643L443.475 230.616V228.293L445.248 229.32V231.643Z" fill="white"/>
<path d="M450.676 250.458L415.443 230.115V219.076L450.676 239.406V250.458Z" fill="url(#paint33_linear)"/>
<path d="M422.643 229.907L420.871 228.893V226.57L422.643 227.584V229.907Z" fill="white"/>
<path d="M430.186 234.259L428.414 233.232V230.91L430.186 231.936V234.259Z" fill="white"/>
<path d="M437.717 238.612L435.944 237.585V235.262L437.717 236.289V238.612Z" fill="#1D3A5A"/>
<path d="M445.248 242.964L443.475 241.937V239.614L445.248 240.641V242.964Z" fill="white"/>
<path d="M450.676 261.778L415.443 241.435V230.396L450.676 250.727V261.778Z" fill="url(#paint34_linear)"/>
<path d="M422.643 241.228L420.871 240.213V237.878L422.643 238.905V241.228Z" fill="white"/>
<path d="M430.186 245.58L428.414 244.553V242.23L430.186 243.257V245.58Z" fill="white"/>
<path d="M437.717 249.932L435.944 248.905V246.582L437.717 247.609V249.932Z" fill="white"/>
<path d="M445.248 254.284L443.475 253.257V250.934L445.248 251.961V254.284Z" fill="white"/>
<path d="M450.676 159.893L415.443 139.551V128.511L450.676 148.854V159.893Z" fill="url(#paint35_linear)"/>
<path d="M422.643 139.355L420.871 138.328V136.005L422.643 137.032V139.355Z" fill="white"/>
<path d="M430.186 143.707L428.414 142.681V140.358L430.186 141.372V143.707Z" fill="white"/>
<path d="M437.717 148.047L435.944 147.033V144.698L437.717 145.724V148.047Z" fill="white"/>
<path d="M445.248 152.4L443.475 151.373V149.05L445.248 150.077V152.4Z" fill="#1D3A5A"/>
<path d="M450.676 171.214L415.443 150.871V139.832L450.676 160.175V171.214Z" fill="url(#paint36_linear)"/>
<path d="M422.643 150.676L420.871 149.649V147.326L422.643 148.353V150.676Z" fill="white"/>
<path d="M430.186 155.016L428.414 154.001V151.678L430.186 152.693V155.016Z" fill="white"/>
<path d="M437.717 159.368L435.944 158.353V156.018L437.717 157.045V159.368Z" fill="white"/>
<path d="M445.248 163.72L443.475 162.693V160.37L445.248 161.397V163.72Z" fill="white"/>
<path d="M450.676 182.535L415.443 162.192V151.152L450.676 171.495V182.535Z" fill="url(#paint37_linear)"/>
<path d="M422.643 161.996L420.871 160.969V158.647L422.643 159.673V161.996Z" fill="#1D3A5A"/>
<path d="M430.186 166.336L428.414 165.322V162.999L430.186 164.013V166.336Z" fill="white"/>
<path d="M437.717 170.688L435.944 169.661V167.339L437.717 168.366V170.688Z" fill="white"/>
<path d="M445.248 175.041L443.475 174.014V171.691L445.248 172.718V175.041Z" fill="white"/>
<path d="M450.676 193.855L415.443 173.512V162.473L450.676 182.804V193.855Z" fill="url(#paint38_linear)"/>
<path d="M422.643 173.317L420.871 172.29V169.967L422.643 170.982V173.317Z" fill="white"/>
<path d="M430.186 177.657L428.414 176.642V174.319L430.186 175.334V177.657Z" fill="white"/>
<path d="M437.717 182.009L435.944 180.994V178.659L437.717 179.686V182.009Z" fill="#1D3A5A"/>
<path d="M445.248 186.361L443.475 185.334V183.011L445.248 184.038V186.361Z" fill="white"/>
<path d="M454.698 269.456L450.932 267.279V145.932L454.698 148.072V269.456Z" fill="#353A45"/>
<path d="M454.698 269.456L480.42 256.362V135.015L454.698 148.072V269.456Z" fill="#242830"/>
<path d="M454.698 148.072L409 121.971L434.722 109L480.42 135.015L454.698 148.072Z" fill="#454A56"/>
<path d="M454.698 148.072L409 121.971V126.299L454.698 152.314V148.072Z" fill="#353A45"/>
<path d="M460.358 272.561L456.593 270.385V149.038L460.358 151.214V272.561Z" fill="#353A45"/>
<path d="M460.358 272.561L464.123 270.385V149.038L460.358 151.214V272.561Z" fill="#242830"/>
<path d="M498.928 290.238L462.375 269.126V154.221L498.928 175.322V290.238Z" fill="#193866"/>
<path d="M498.268 243.636L463.035 223.293V212.242L498.268 232.584V243.636Z" fill="url(#paint39_linear)"/>
<path d="M476.886 224.504L467.583 219.137V216.936L476.886 222.315V224.504Z" fill="#1D3A5A"/>
<path d="M476.886 229.21L467.583 223.843V221.643L476.886 227.022V229.21Z" fill="#1D3A5A"/>
<path d="M484.637 228.403L479.979 225.726V224.1L484.637 226.79V228.403Z" fill="white"/>
<path d="M493.721 233.648L489.063 230.971V229.345L493.721 232.034V233.648Z" fill="white"/>
<path d="M483.977 233.025L479.319 230.335V228.721L483.977 231.399V233.025Z" fill="white"/>
<path d="M488.574 235.555L486.74 234.492V232.878L488.574 233.929V235.555Z" fill="white"/>
<path d="M493.232 238.367L491.398 237.303V235.69L493.232 236.741V238.367Z" fill="white"/>
<path d="M498.268 254.957L463.035 234.614V223.562L498.268 243.905V254.957Z" fill="url(#paint40_linear)"/>
<path d="M470.236 234.406L468.463 233.379V231.056L470.236 232.083V234.406Z" fill="white"/>
<path d="M477.767 238.758L475.994 237.731V235.409L477.767 236.435V238.758Z" fill="white"/>
<path d="M485.297 243.11L483.525 242.083V239.761L485.297 240.788V243.11Z" fill="white"/>
<path d="M492.84 247.463L491.068 246.436V244.113L492.84 245.128V247.463Z" fill="white"/>
<path d="M498.268 232.315L463.035 211.973V200.921L498.268 221.264V232.315Z" fill="url(#paint41_linear)"/>
<path d="M485.75 220.726L469.796 211.508V209.185L485.75 218.403V220.726Z" fill="white"/>
<path d="M498.268 266.265L463.035 245.934V234.883L498.268 255.225V266.265Z" fill="url(#paint42_linear)"/>
<path d="M470.236 245.727L468.463 244.7V242.377L470.236 243.404V245.727Z" fill="#1D3A5A"/>
<path d="M477.767 250.079L475.994 249.052V246.729L477.767 247.756V250.079Z" fill="white"/>
<path d="M485.297 254.431L483.525 253.404V251.081L485.297 252.096V254.431Z" fill="#1D3A5A"/>
<path d="M492.84 258.771L491.068 257.756V255.433L492.84 256.448V258.771Z" fill="white"/>
<path d="M498.268 277.585L463.035 257.255V246.203L498.268 266.546V277.585Z" fill="url(#paint43_linear)"/>
<path d="M470.236 257.047L468.463 256.02V253.697L470.236 254.724V257.047Z" fill="white"/>
<path d="M477.767 261.399L475.994 260.372V258.05L477.767 259.076V261.399Z" fill="white"/>
<path d="M485.297 265.751L483.525 264.724V262.402L485.297 263.429V265.751Z" fill="#1D3A5A"/>
<path d="M492.84 270.091L491.068 269.077V266.754L492.84 267.768V270.091Z" fill="white"/>
<path d="M498.268 288.906L463.035 268.575V257.524L498.268 277.867V288.906Z" fill="url(#paint44_linear)"/>
<path d="M470.236 268.368L468.463 267.341V265.018L470.236 266.045V268.368Z" fill="white"/>
<path d="M477.767 272.72L475.994 271.693V269.37L477.767 270.397V272.72Z" fill="white"/>
<path d="M485.297 277.072L483.525 276.045V273.722L485.297 274.749V277.072Z" fill="#1D3A5A"/>
<path d="M492.84 281.412L491.068 280.397V278.074L492.84 279.089V281.412Z" fill="white"/>
<path d="M498.268 187.033L463.035 166.691V155.639L498.268 175.982V187.033Z" fill="url(#paint45_linear)"/>
<path d="M470.236 166.483L468.463 165.468V163.145L470.236 164.16V166.483Z" fill="white"/>
<path d="M477.767 170.835L475.994 169.808V167.485L477.767 168.512V170.835Z" fill="#1D3A5A"/>
<path d="M485.297 175.187L483.525 174.16V171.838L485.297 172.864V175.187Z" fill="white"/>
<path d="M492.84 179.539L491.068 178.512V176.19L492.84 177.217V179.539Z" fill="white"/>
<path d="M498.268 198.354L463.035 178.011V166.972L498.268 187.302V198.354Z" fill="url(#paint46_linear)"/>
<path d="M470.236 177.803L468.463 176.789V174.466L470.236 175.481V177.803Z" fill="white"/>
<path d="M477.767 182.156L475.994 181.141V178.806L477.767 179.833V182.156Z" fill="white"/>
<path d="M485.297 186.508L483.525 185.481V183.158L485.297 184.185V186.508Z" fill="#1D3A5A"/>
<path d="M492.84 190.86L491.068 189.833V187.51L492.84 188.537V190.86Z" fill="white"/>
<path d="M498.268 209.675L463.035 189.332V178.28L498.268 198.623V209.675Z" fill="url(#paint47_linear)"/>
<path d="M470.236 189.124L468.463 188.109V185.774L470.236 186.801V189.124Z" fill="white"/>
<path d="M477.767 193.476L475.994 192.449V190.126L477.767 191.153V193.476Z" fill="white"/>
<path d="M485.297 197.828L483.525 196.801V194.479L485.297 195.506V197.828Z" fill="white"/>
<path d="M492.84 202.18L491.068 201.154V198.831L492.84 199.858V202.18Z" fill="white"/>
<path d="M498.268 220.995L463.035 200.652V189.601L498.268 209.944V220.995Z" fill="url(#paint48_linear)"/>
<path d="M470.236 200.444L468.463 199.43V197.107L470.236 198.122V200.444Z" fill="white"/>
<path d="M477.767 204.797L475.994 203.77V201.447L477.767 202.474V204.797Z" fill="white"/>
<path d="M485.297 209.149L483.525 208.122V205.799L485.297 206.826V209.149Z" fill="white"/>
<path d="M492.84 213.501L491.068 212.474V210.151L492.84 211.178V213.501Z" fill="white"/>
<path d="M502.278 296.583L498.513 294.419V173.072L502.278 175.212V296.583Z" fill="#353A45"/>
<path d="M502.278 296.583L528 283.502V162.155L502.278 175.212V296.583Z" fill="#242830"/>
<path d="M502.278 175.212L456.593 149.111L482.314 136.14L528 162.155L502.278 175.212Z" fill="#454A56"/>
<path d="M502.278 175.212L456.593 149.111V153.439L502.278 179.454V175.212Z" fill="#353A45"/>
<path d="M312.667 239.929L312.634 318.719L307.188 322.071L181.174 249.577V164.008L312.667 239.929Z" fill="#353A45"/>
<rect width="18.1469" height="147.095" transform="matrix(0.866025 -0.5 0.866025 0.5 181 164.073)" fill="#454A56"/>
<path d="M312.667 252.634V254.449L181.174 178.564V176.665L312.667 252.634Z" fill="#9A9DA2"/>
<path d="M312.667 267.371V269.187L181.174 193.302V191.403L312.667 267.371Z" fill="#9A9DA2"/>
<path d="M290.751 227.276V240.47L289.059 239.653V226.266L290.751 227.276Z" fill="#9A9DA2"/>
<path d="M245.713 201.239V214.426L244.018 213.609V200.229L245.713 201.239Z" fill="#9A9DA2"/>
<path d="M268.232 214.234V227.428L266.54 226.611V213.228L268.232 214.234Z" fill="#9A9DA2"/>
<path d="M223.191 188.284V201.478L221.499 200.661V187.282L223.191 188.284Z" fill="#9A9DA2"/>
<path d="M200.672 175.325V188.52L198.98 187.703V174.319L200.672 175.325Z" fill="#9A9DA2"/>
<path d="M312.667 281.895V283.71L181.174 207.825V205.926L312.667 281.895Z" fill="#9A9DA2"/>
<path d="M290.754 256.544V269.739L289.059 268.922V255.531L290.754 256.544Z" fill="#9A9DA2"/>
<path d="M245.713 230.5V243.695L244.021 242.878V229.494L245.713 230.5Z" fill="#9A9DA2"/>
<path d="M268.232 243.498V256.693L266.54 255.876V242.489L268.232 243.498Z" fill="#9A9DA2"/>
<path d="M223.191 217.556V230.765L221.499 229.948V216.547L223.191 217.556Z" fill="#9A9DA2"/>
<path d="M200.672 204.59V217.785L198.98 216.968V203.581L200.672 204.59Z" fill="#9A9DA2"/>
<path d="M312.667 311.062V312.877L181.174 236.992V235.093L312.667 311.062Z" fill="#9A9DA2"/>
<path d="M290.754 285.707V298.898L289.059 298.081V284.698L290.754 285.707Z" fill="#9A9DA2"/>
<path d="M245.713 259.667V272.861L244.021 272.044V258.661L245.713 259.667Z" fill="#9A9DA2"/>
<path d="M268.232 272.665V285.86L266.54 285.043V271.656L268.232 272.665Z" fill="#9A9DA2"/>
<path d="M223.191 246.741V259.935L221.499 259.118V245.713L223.191 246.741Z" fill="#9A9DA2"/>
<path d="M200.672 233.757V246.951L198.98 246.134V232.747L200.672 233.757Z" fill="#9A9DA2"/>
<path d="M300.34 247.311V260.505L298.648 259.689V246.302L300.34 247.311Z" fill="#9A9DA2"/>
<path d="M255.302 221.27V234.465L253.607 233.648V220.264L255.302 221.27Z" fill="#9A9DA2"/>
<path d="M277.821 234.269V247.467L276.129 246.65V233.263L277.821 234.269Z" fill="#9A9DA2"/>
<path d="M232.78 208.326V221.521L231.088 220.704V207.317L232.78 208.326Z" fill="#9A9DA2"/>
<path d="M210.261 195.36V208.555L208.569 207.738V194.354L210.261 195.36Z" fill="#9A9DA2"/>
<path d="M188.865 183.135V196.33L187.173 195.513V182.129L188.865 183.135Z" fill="#9A9DA2"/>
<path d="M312.667 296.665V298.481L181.153 222.595V220.697L312.667 296.665Z" fill="#9A9DA2"/>
<path d="M300.34 276.605V289.799L298.648 288.982V275.595L300.34 276.605Z" fill="#9A9DA2"/>
<path d="M255.299 250.568V263.762L253.607 262.945V249.558L255.299 250.568Z" fill="#9A9DA2"/>
<path d="M277.821 263.563V276.757L276.129 275.94V262.557L277.821 263.563Z" fill="#9A9DA2"/>
<path d="M232.78 237.62V250.815L231.088 249.998V236.614L232.78 237.62Z" fill="#9A9DA2"/>
<path d="M210.258 224.654V237.849L208.566 237.032V223.648L210.258 224.654Z" fill="#9A9DA2"/>
<path d="M188.865 212.433V225.624L187.173 224.807V211.423L188.865 212.433Z" fill="#9A9DA2"/>
<path d="M300.245 305.561V318.106L298.55 317.133V304.548L300.245 305.561Z" fill="#9A9DA2"/>
<path d="M255.201 279.517V292.178L253.49 291.194V278.507L255.201 279.517Z" fill="#9A9DA2"/>
<path d="M277.734 292.515V305.14L276.042 304.163V291.506L277.734 292.515Z" fill="#9A9DA2"/>
<path d="M232.678 266.569C232.678 270.788 232.678 275.006 232.678 279.223L230.986 278.246C230.986 274.02 230.986 269.792 230.986 265.563L232.678 266.569Z" fill="#9A9DA2"/>
<path d="M210.16 253.603V266.257L208.468 265.284V252.597L210.16 253.603Z" fill="#9A9DA2"/>
<path d="M188.777 241.382V253.944L187.053 252.953C187.053 248.758 187.062 244.565 187.082 240.372L188.777 241.382Z" fill="#9A9DA2"/>
<path d="M307.309 236.628L323.336 227.991L323.718 311.49L307.309 322.246V236.628Z" fill="#242830"/>
<path d="M307.166 249.388L318.167 243.037C318.167 243.647 318.167 244.257 318.149 244.853C314.504 246.976 310.857 249.099 307.209 251.221L307.166 249.388Z" fill="#9A9DA2"/>
<path d="M307.166 264.202L318.167 257.848C318.167 258.458 318.167 259.068 318.149 259.663L307.209 266.032L307.166 264.202Z" fill="#9A9DA2"/>
<path d="M307.166 278.692L318.167 272.342C318.167 272.952 318.167 273.558 318.149 274.157L307.209 280.526L307.166 278.692Z" fill="#9A9DA2"/>
<path d="M307.166 293.532L318.167 287.181C318.167 287.791 318.167 288.398 318.149 288.997L307.209 295.394L307.166 293.532Z" fill="#9A9DA2"/>
<path d="M307.169 307.841L318.167 301.491C318.167 302.097 318.167 302.707 318.149 303.306L307.213 309.675L307.169 307.841Z" fill="#9A9DA2"/>
<path d="M290.751 227.276L305.514 217.909L303.836 216.939L289.048 226.281L290.751 227.276Z" fill="#9A9DA2"/>
<path d="M268.294 214.314L283.449 205.317L281.768 204.348L266.602 213.308L268.294 214.314Z" fill="#9A9DA2"/>
<path d="M245.713 201.257L261.636 192.642L259.958 191.673L244.018 200.266L245.713 201.257Z" fill="#9A9DA2"/>
<path d="M223.191 188.284L238.361 178.884L236.683 177.915L221.513 187.256L223.191 188.284Z" fill="#9A9DA2"/>
<path d="M200.687 175.271L215.468 165.893L213.79 164.923L199.006 174.265L200.687 175.271Z" fill="#9A9DA2"/>
<path d="M245.69 267.755C252.235 269.542 260.804 267.981 261.404 258.55C261.511 256.867 261.522 252.484 258.515 245.541C258.718 246.873 258.917 249.142 258.242 251.198C258.016 251.906 257.67 252.57 257.217 253.159C257.069 251.097 256.849 248.863 256.536 246.465C256.152 243.542 255.682 240.771 255.172 238.194C255.349 239.616 255.591 242.604 254.148 244.299C253.097 245.543 251.194 246.031 250.567 245.187C250.259 244.773 250.286 244.073 250.744 242.135C251.657 238.209 252.439 237.249 252.62 235.933C252.871 234.103 252.087 230.672 247.333 223.624C248.008 226.566 247.562 228.888 246.141 229.631C245.936 229.737 244.401 230.494 242.843 229.098C240.797 227.277 240.242 223.121 240.001 221.419C239.146 215.41 241.219 211.869 242.388 210.325C240.752 211.569 236.444 215.419 236.021 224.503C235.793 229.418 236.783 234.081 237.62 237.107C236.8 236.596 236.066 235.957 235.447 235.215C233.334 232.672 232.226 228.805 232.492 225.304C231.885 225.66 229.843 227.051 229.593 230.915C229.415 233.594 230.19 236.178 230.616 237.414C229.602 236.043 227.612 233.099 226.53 229.341C224.243 221.442 228.129 217.499 228.406 217.231C227.978 217.43 219.386 221.755 221.665 236.002C223.412 246.927 230.726 258.566 238.302 264.154C241.633 266.616 244.231 267.357 245.69 267.755Z" fill="url(#paint49_linear)"/>
<path d="M239.874 265.12C241.132 265.849 242.484 266.402 243.892 266.764C247.212 267.677 257.677 266.641 256.41 259.93C256.271 259.193 255.914 257.976 254.825 256.283C254.925 256.62 255.573 258.919 254.68 260.387C253.953 261.581 252.679 261.439 252.359 261.391C252.004 260.799 251.556 259.927 251.416 259.005C251.238 257.869 251.638 257.31 251.924 256.535C252.21 255.76 252.492 254.487 252.35 252.449C252.087 252.626 250.634 253.515 249.161 252.287C247.349 250.772 246.601 246.957 246.802 244.743C246.921 243.42 247.322 243.322 247.541 242.062C247.921 239.88 247.212 237.286 246.485 235.311C246.612 236.181 246.914 238.841 245.615 240.252C245.228 240.671 244.371 241.59 243.076 240.879C241.511 240.024 240.459 237.455 240.32 237.111C239.505 235.069 239.796 233.735 239.523 233.557C239.196 233.33 238.537 235.064 238.508 237.326C238.483 239.28 238.94 241.149 239.327 242.41C239.492 242.935 240.052 244.848 239.523 246.369C239.345 246.949 238.957 247.442 238.435 247.751C236.614 246.174 235.137 244.239 234.097 242.066C233.487 240.812 233.043 239.485 232.778 238.116C232.549 239.038 232.451 239.987 232.489 240.936C232.562 242.587 232.88 244.219 233.432 245.777C234.546 248.367 235.661 250.955 236.778 253.541C235.495 252.605 232.888 250.496 230.241 246.79C228.306 244.077 226.767 241.103 225.672 237.956C225.464 239.296 225.204 242.22 226.324 246.371C227.37 250.249 229.076 253.186 229.845 254.49C232.848 259.582 236.333 262.663 238.1 263.967C238.67 264.384 239.262 264.769 239.874 265.12Z" fill="#FCA651"/>
<path d="M241.473 264.676C242.213 265.105 243.009 265.431 243.838 265.642C245.793 266.175 251.938 265.571 251.194 261.627C251.112 261.195 250.902 260.483 250.263 259.484C250.321 259.682 250.703 261.034 250.177 261.895C250.036 262.119 249.83 262.296 249.587 262.401C249.344 262.506 249.075 262.535 248.815 262.485C248.543 262.057 248.355 261.582 248.26 261.083C248.159 260.417 248.39 260.087 248.559 259.632C248.728 259.177 248.893 258.427 248.808 257.228C248.529 257.423 248.194 257.519 247.855 257.502C247.516 257.484 247.192 257.354 246.935 257.132C245.869 256.244 245.43 253.996 245.547 252.69C245.618 251.914 245.855 251.854 245.983 251.116C246.207 249.833 245.789 248.309 245.363 247.149C245.437 247.661 245.615 249.224 244.851 250.052C244.624 250.299 244.124 250.839 243.359 250.422C242.44 249.919 241.82 248.409 241.74 248.208C241.26 247.007 241.433 246.227 241.271 246.117C241.079 245.983 240.692 247.005 240.674 248.33C240.682 249.345 240.845 250.353 241.155 251.319C241.253 251.626 241.582 252.751 241.271 253.644C241.167 253.986 240.939 254.276 240.631 254.456C239.561 253.532 238.693 252.396 238.082 251.12C237.724 250.383 237.464 249.602 237.307 248.798C237.17 249.339 237.11 249.897 237.129 250.455C237.174 251.425 237.36 252.383 237.684 253.298L239.651 257.861C239.102 257.777 238.151 257.526 236.996 256.69C234.596 254.952 233.233 252.079 232.961 251.488C233.81 254.34 235.05 257.061 236.648 259.571C237.151 260.35 238.681 262.691 240.427 263.983C240.932 264.361 241.473 264.676 241.473 264.676Z" fill="#FCA651"/>
<path d="M241.813 269.796C248.358 271.584 256.925 270.022 257.528 260.591C257.634 258.909 257.645 254.526 254.639 247.582C254.841 248.915 255.04 251.184 254.365 253.239C254.141 253.95 253.795 254.616 253.342 255.208C253.192 253.145 252.974 250.912 252.659 248.513C252.277 245.591 251.807 242.819 251.295 240.243C251.483 241.664 251.714 244.653 250.272 246.348C249.22 247.591 247.317 248.078 246.692 247.236C246.384 246.822 246.411 246.124 246.869 244.185C247.782 240.257 248.564 239.299 248.745 237.981C248.996 236.153 248.212 232.722 243.458 225.674C244.133 228.616 243.687 230.937 242.264 231.681C242.062 231.786 240.526 232.544 238.968 231.148C236.922 229.327 236.367 225.171 236.126 223.469C235.271 217.46 237.344 213.919 238.513 212.376C236.875 213.619 232.569 217.469 232.146 226.553C231.917 231.468 232.908 236.13 233.745 239.156C232.928 238.64 232.199 237.998 231.584 237.253C229.47 234.71 228.362 230.841 228.628 227.341C228.02 227.696 225.979 229.089 225.73 232.953C225.553 235.632 226.327 238.216 226.754 239.452C225.739 238.081 223.747 235.137 222.667 231.379C220.381 223.48 224.266 219.536 224.543 219.267C224.113 219.468 215.523 223.791 217.792 238.04C219.54 248.965 226.853 260.604 234.431 266.191C237.757 268.657 240.354 269.398 241.813 269.796Z" fill="url(#paint50_linear)"/>
<path d="M235.998 267.16C237.256 267.889 238.609 268.442 240.018 268.803C243.341 269.718 253.805 268.682 252.539 261.972C252.398 261.234 252.041 260.017 250.954 258.324C251.052 258.66 251.702 260.961 250.808 262.427C250.08 263.622 248.806 263.48 248.488 263.432C248.026 262.703 247.706 261.894 247.544 261.046C247.367 259.911 247.765 259.349 248.053 258.575C248.34 257.8 248.621 256.526 248.479 254.488C248.216 254.666 246.763 255.554 245.281 254.327C243.469 252.811 242.721 248.997 242.92 246.781C243.041 245.459 243.442 245.36 243.661 244.102C244.041 241.92 243.332 239.326 242.605 237.35C242.731 238.223 243.033 240.882 241.735 242.291C241.347 242.712 240.5 243.631 239.196 242.92C237.63 242.066 236.577 239.495 236.44 239.152C235.623 237.109 235.907 235.776 235.642 235.599C235.315 235.371 234.655 237.103 234.628 239.367C234.603 241.321 235.058 243.19 235.447 244.452C235.612 244.976 236.172 246.889 235.642 248.41C235.465 248.985 235.08 249.475 234.564 249.784C232.742 248.207 231.264 246.271 230.223 244.098C229.614 242.844 229.171 241.516 228.907 240.147C228.674 241.07 228.575 242.022 228.612 242.974C228.686 244.625 229.003 246.256 229.554 247.815L232.901 255.579C231.618 254.641 229.01 252.534 226.363 248.828C224.427 246.115 222.889 243.14 221.795 239.992C221.587 241.334 221.328 244.256 222.447 248.409C223.493 252.287 225.199 255.222 225.968 256.528C228.969 261.62 232.457 264.701 234.223 266.005C234.792 266.423 235.385 266.809 235.998 267.16Z" fill="url(#paint51_linear)"/>
<path d="M237.597 266.717C238.337 267.146 239.132 267.471 239.96 267.684C241.914 268.217 248.061 267.613 247.317 263.668C247.235 263.235 247.026 262.524 246.386 261.526C246.445 261.723 246.825 263.075 246.301 263.937C246.159 264.161 245.953 264.337 245.71 264.442C245.466 264.548 245.197 264.577 244.936 264.527C244.665 264.098 244.477 263.623 244.382 263.125C244.282 262.459 244.512 262.128 244.68 261.673C244.849 261.218 245.014 260.469 244.931 259.269C244.652 259.463 244.317 259.559 243.978 259.542C243.639 259.524 243.316 259.395 243.058 259.173C241.992 258.285 241.553 256.038 241.671 254.732C241.742 253.954 241.978 253.895 242.106 253.158C242.33 251.875 241.912 250.35 241.484 249.19C241.56 249.702 241.736 251.265 240.974 252.093C240.747 252.34 240.248 252.88 239.482 252.463C238.561 251.96 237.943 250.45 237.863 250.247C237.384 249.048 237.554 248.268 237.394 248.156C237.202 248.023 236.813 249.045 236.797 250.372C236.806 251.386 236.968 252.394 237.279 253.36C237.376 253.667 237.705 254.792 237.394 255.686C237.289 256.026 237.061 256.316 236.755 256.498C235.685 255.572 234.817 254.435 234.205 253.159C233.847 252.427 233.587 251.65 233.43 250.85C233.292 251.391 233.233 251.949 233.253 252.507C233.297 253.477 233.484 254.435 233.807 255.35L235.781 259.911C235.232 259.827 234.281 259.577 233.127 258.74C230.726 257.002 229.364 254.129 229.092 253.538C229.94 256.39 231.181 259.111 232.778 261.622C233.281 262.4 234.811 264.742 236.557 266.033C237.055 266.403 237.597 266.717 237.597 266.717Z" fill="#F9D93D"/>
<path d="M258.515 245.541L254.639 247.582C255.461 249.547 256.284 251.512 257.108 253.476L259.125 252.003L258.848 246.646C258.738 246.278 258.626 245.91 258.515 245.541Z" fill="#FCA651"/>
<path d="M255.173 238.201L251.295 240.243C251.643 242.236 251.991 244.229 252.338 246.221L256.044 243.675C255.76 241.851 255.47 240.027 255.173 238.201Z" fill="#FCA651"/>
<path d="M243.451 225.67L246.407 230.468L248.788 226.395L247.328 223.622L243.451 225.67Z" fill="url(#paint52_linear)"/>
<path d="M242.383 210.341L238.506 212.383C237.627 213.569 236.943 214.889 236.479 216.291C235.718 218.634 235.579 221.134 236.074 223.547L239.805 221.835C239.171 219.863 239.076 217.758 239.529 215.737C239.983 213.716 240.968 211.853 242.383 210.341Z" fill="url(#paint53_linear)"/>
<path d="M228.612 227.344C229.811 226.726 231.009 226.106 232.206 225.486C231.942 228.787 231.673 232.089 231.4 235.393L230.088 234.95C229.596 233.936 229.22 232.869 228.967 231.77C228.632 230.32 228.512 228.829 228.612 227.344Z" fill="#FCA651"/>
<path d="M224.424 219.37L228.399 217.238L225.236 220.291C224.552 223.37 223.868 226.453 223.186 229.54L221.989 228.003C221.812 226.401 221.932 224.78 222.344 223.222C222.574 222.362 222.918 221.536 223.367 220.767C223.674 220.268 224.028 219.801 224.424 219.37Z" fill="url(#paint54_linear)"/>
<path d="M76.3949 206.643L76.3452 206.702L76.1317 206.585C76.2177 206.612 76.3057 206.631 76.3949 206.643Z" fill="#048780"/>
<path d="M76.1317 206.585C75.7059 206.503 75.3129 206.3 75 206L76.1317 206.585Z" fill="#048780"/>
<path d="M156.408 281.109L168.245 287.943L163.175 290.87L151.337 284.036L156.408 281.109Z" fill="#BC4023"/>
<path d="M174.562 291.587L186.396 298.42L181.325 301.351L169.488 294.517L174.562 291.587Z" fill="#BC4023"/>
<path d="M133.184 273.556L138.257 270.629L150.094 277.462L145.021 280.393L133.184 273.556Z" fill="#BC4023"/>
<path d="M115.033 263.078L120.106 260.148L131.944 266.982L126.87 269.909L115.033 263.078Z" fill="#BC4023"/>
<g style="mix-blend-mode:multiply">
<path d="M183.871 362.401L108.71 317.256C101.097 312.666 101.097 301.188 108.71 296.599C110.445 295.551 112.414 295 114.419 295C116.423 295 118.392 295.551 120.128 296.599L195.293 341.744C202.902 346.334 202.902 357.812 195.293 362.401C193.556 363.449 191.587 364 189.582 364C187.577 364 185.608 363.449 183.871 362.401Z" fill="#E6E6E6"/>
</g>
<path d="M161.935 339.989L127.876 320.326V314.708L161.935 334.374V339.989Z" fill="#242830"/>
<path d="M161.935 339.989L179.571 329.824V324.206L161.935 334.374V339.989Z" fill="#242830"/>
<path d="M161.935 334.503L127.876 314.84L145.512 304.655L179.571 324.32L161.935 334.503Z" fill="#454A56"/>
<path d="M194.867 342.15C193.914 342.138 192.98 341.872 192.163 341.38L117.302 298.154C114.606 296.599 112.574 292.821 112.574 289.364L110.901 237.313C110.901 233.409 115.045 231.628 117.334 231.628C118.287 231.64 119.22 231.907 120.036 232.4L194.897 275.626C197.593 277.182 199.625 280.96 199.625 284.413V336.468C199.619 340.372 197.163 342.15 194.867 342.15Z" fill="#242830"/>
<path d="M192.49 343.524C191.536 343.511 190.602 343.245 189.785 342.752L114.925 299.526C112.228 297.97 110.196 294.192 110.196 290.753V238.669C110.196 234.766 112.667 232.985 114.963 232.985C115.917 232.998 116.85 233.264 117.668 233.757L192.528 276.983C195.224 278.539 197.257 282.317 197.257 285.756V337.839C197.26 341.743 194.789 343.524 192.49 343.524Z" fill="#353A45"/>
<path d="M194.514 285.773V337.842C194.547 338.588 194.356 339.326 193.967 339.962C193.382 340.84 192.338 341.05 191.157 340.375L116.296 297.151C114.439 296.081 112.939 293.209 112.939 290.739V238.687C112.939 237.058 113.588 236.008 114.559 235.789C115.162 235.68 115.785 235.808 116.296 236.146L191.157 279.378C193.014 280.434 194.514 283.296 194.514 285.773Z" fill="#112535"/>
<path d="M194.514 285.773V337.842C194.547 338.588 194.356 339.326 193.967 339.962C193.359 340.081 192.729 339.956 192.212 339.614L117.352 296.391C115.495 295.321 113.995 292.449 113.995 289.958V237.903C113.96 237.155 114.152 236.413 114.545 235.774C115.148 235.666 115.77 235.793 116.282 236.131L191.142 279.363C193.014 280.433 194.514 283.296 194.514 285.773Z" fill="#353A45"/>
<path d="M167.192 287.326L137.228 270.026L137.228 298.544L167.192 315.843L167.192 287.326Z" fill="#242830"/>
<path d="M168.826 277.155L135.593 257.968C135.092 257.678 134.685 257.913 134.685 258.492L134.685 267.51C134.685 268.089 135.092 268.793 135.593 269.083L168.826 288.27C169.328 288.559 169.734 288.325 169.734 287.745L169.734 278.728C169.734 278.149 169.328 277.444 168.826 277.155Z" fill="url(#paint55_linear)"/>
<path d="M138.136 262.371L137.228 261.847L137.228 262.896L138.136 263.42L138.136 262.371Z" fill="white"/>
<path d="M139.952 263.42L139.044 262.896L139.044 263.944L139.952 264.468L139.952 263.42Z" fill="white"/>
<path d="M141.769 264.469L140.861 263.944L140.861 264.993L141.769 265.517L141.769 264.469Z" fill="white"/>
<path d="M143.585 265.517L142.676 264.993L142.676 266.041L143.585 266.566L143.585 265.517Z" fill="white"/>
<path d="M145.4 266.566L144.492 266.041L144.492 267.09L145.4 267.614L145.4 266.566Z" fill="white"/>
<path d="M147.217 267.614L146.309 267.09L146.309 268.139L147.217 268.663L147.217 267.614Z" fill="white"/>
<path d="M149.033 268.663L148.125 268.139L148.125 269.187L149.033 269.711L149.033 268.663Z" fill="white"/>
<path d="M150.849 269.711L149.941 269.187L149.941 270.236L150.849 270.76L150.849 269.711Z" fill="white"/>
<path d="M138.136 264.469L137.228 263.944L137.228 264.993L138.136 265.517L138.136 264.469Z" fill="white"/>
<path d="M139.952 265.517L139.044 264.993L139.044 266.041L139.952 266.565L139.952 265.517Z" fill="white"/>
<path d="M141.769 266.566L140.861 266.042L140.861 267.09L141.769 267.614L141.769 266.566Z" fill="white"/>
<path d="M143.585 267.614L142.676 267.09L142.676 268.139L143.585 268.663L143.585 267.614Z" fill="white"/>
<path d="M145.4 268.663L144.492 268.138L144.492 269.187L145.4 269.711L145.4 268.663Z" fill="white"/>
<path d="M147.217 269.712L146.309 269.187L146.309 270.236L147.217 270.76L147.217 269.712Z" fill="white"/>
<path d="M149.033 270.76L148.125 270.236L148.125 271.284L149.033 271.809L149.033 270.76Z" fill="white"/>
<path d="M150.849 271.808L149.941 271.284L149.941 272.333L150.849 272.857L150.849 271.808Z" fill="white"/>
<path d="M138.136 266.566L137.228 266.042L137.228 267.09L138.136 267.614L138.136 266.566Z" fill="white"/>
<path d="M139.952 267.614L139.044 267.09L139.044 268.139L139.952 268.663L139.952 267.614Z" fill="white"/>
<path d="M141.769 268.663L140.861 268.139L140.861 269.187L141.769 269.712L141.769 268.663Z" fill="white"/>
<path d="M143.585 269.712L142.676 269.187L142.676 270.236L143.585 270.76L143.585 269.712Z" fill="white"/>
<path d="M145.4 270.76L144.492 270.236L144.492 271.284L145.4 271.809L145.4 270.76Z" fill="white"/>
<path d="M147.217 271.809L146.309 271.285L146.309 272.333L147.217 272.857L147.217 271.809Z" fill="white"/>
<path d="M149.033 272.857L148.125 272.333L148.125 273.382L149.033 273.906L149.033 272.857Z" fill="white"/>
<path d="M150.849 273.906L149.941 273.381L149.941 274.43L150.849 274.954L150.849 273.906Z" fill="white"/>
<path d="M167.192 280.722L165.376 279.673L165.376 281.77L167.192 282.819L167.192 280.722Z" fill="white"/>
<path d="M163.559 278.624L161.743 277.576L161.743 279.673L163.559 280.721L163.559 278.624Z" fill="white"/>
<path d="M159.93 276.529L158.114 275.48L158.114 277.578L159.93 278.626L159.93 276.529Z" fill="white"/>
<path d="M168.826 290.367L135.593 271.18C135.092 270.89 134.685 271.125 134.685 271.704L134.685 280.722C134.685 281.301 135.092 282.005 135.593 282.295L168.826 301.482C169.328 301.771 169.734 301.536 169.734 300.957L169.734 291.94C169.734 291.36 169.328 290.656 168.826 290.367Z" fill="#353A45"/>
<path d="M138.136 275.584L137.228 275.059L137.228 276.108L138.136 276.632L138.136 275.584Z" fill="white"/>
<path d="M139.952 276.632L139.044 276.108L139.044 277.156L139.952 277.681L139.952 276.632Z" fill="white"/>
<path d="M141.769 277.681L140.861 277.157L140.861 278.205L141.769 278.729L141.769 277.681Z" fill="white"/>
<path d="M143.585 278.729L142.676 278.205L142.676 279.254L143.585 279.778L143.585 278.729Z" fill="white"/>
<path d="M145.4 279.778L144.492 279.253L144.492 280.302L145.4 280.826L145.4 279.778Z" fill="white"/>
<path d="M147.217 280.827L146.309 280.302L146.309 281.351L147.217 281.875L147.217 280.827Z" fill="white"/>
<path d="M149.033 281.875L148.125 281.351L148.125 282.399L149.033 282.924L149.033 281.875Z" fill="white"/>
<path d="M150.849 282.923L149.941 282.399L149.941 283.448L150.849 283.972L150.849 282.923Z" fill="white"/>
<path d="M138.136 277.681L137.228 277.157L137.228 278.205L138.136 278.729L138.136 277.681Z" fill="white"/>
<path d="M139.952 278.729L139.044 278.205L139.044 279.254L139.952 279.778L139.952 278.729Z" fill="white"/>
<path d="M141.769 279.778L140.861 279.254L140.861 280.302L141.769 280.827L141.769 279.778Z" fill="white"/>
<path d="M143.585 280.827L142.676 280.302L142.676 281.351L143.585 281.875L143.585 280.827Z" fill="white"/>
<path d="M145.4 281.875L144.492 281.351L144.492 282.399L145.4 282.924L145.4 281.875Z" fill="white"/>
<path d="M147.217 282.924L146.309 282.4L146.309 283.448L147.217 283.972L147.217 282.924Z" fill="white"/>
<path d="M149.033 283.972L148.125 283.448L148.125 284.497L149.033 285.021L149.033 283.972Z" fill="white"/>
<path d="M150.849 285.021L149.941 284.496L149.941 285.545L150.849 286.069L150.849 285.021Z" fill="white"/>
<path d="M138.136 279.778L137.228 279.254L137.228 280.302L138.136 280.826L138.136 279.778Z" fill="white"/>
<path d="M139.952 280.826L139.044 280.302L139.044 281.351L139.952 281.875L139.952 280.826Z" fill="white"/>
<path d="M141.769 281.875L140.861 281.351L140.861 282.4L141.769 282.924L141.769 281.875Z" fill="white"/>
<path d="M143.585 282.924L142.676 282.399L142.676 283.448L143.585 283.972L143.585 282.924Z" fill="white"/>
<path d="M145.4 283.972L144.492 283.448L144.492 284.496L145.4 285.021L145.4 283.972Z" fill="white"/>
<path d="M147.217 285.021L146.309 284.497L146.309 285.545L147.217 286.069L147.217 285.021Z" fill="white"/>
<path d="M149.033 286.069L148.125 285.545L148.125 286.594L149.033 287.118L149.033 286.069Z" fill="white"/>
<path d="M150.849 287.118L149.941 286.593L149.941 287.642L150.849 288.166L150.849 287.118Z" fill="white"/>
<path d="M167.192 293.93L165.376 292.881L165.376 294.979L167.192 296.027L167.192 293.93Z" fill="white"/>
<path d="M163.559 291.833L161.743 290.784L161.743 292.881L163.559 293.93L163.559 291.833Z" fill="white"/>
<path d="M159.93 289.737L158.114 288.689L158.114 290.786L159.93 291.835L159.93 289.737Z" fill="white"/>
<path d="M168.826 303.579L135.593 284.392C135.092 284.102 134.685 284.337 134.685 284.916L134.685 293.93C134.685 294.509 135.092 295.213 135.593 295.503L168.826 314.69C169.328 314.98 169.734 314.745 169.734 314.166L169.734 305.152C169.734 304.573 169.328 303.868 168.826 303.579Z" fill="#353A45"/>
<path d="M138.136 288.792L137.228 288.268L137.228 289.316L138.136 289.841L138.136 288.792Z" fill="white"/>
<path d="M139.952 289.84L139.044 289.316L139.044 290.365L139.952 290.889L139.952 289.84Z" fill="white"/>
<path d="M141.769 290.889L140.861 290.365L140.861 291.414L141.769 291.938L141.769 290.889Z" fill="white"/>
<path d="M143.585 291.938L142.676 291.413L142.676 292.462L143.585 292.986L143.585 291.938Z" fill="white"/>
<path d="M145.4 292.986L144.492 292.462L144.492 293.51L145.4 294.035L145.4 292.986Z" fill="white"/>
<path d="M147.217 294.035L146.309 293.511L146.309 294.559L147.217 295.084L147.217 294.035Z" fill="white"/>
<path d="M149.033 295.083L148.125 294.559L148.125 295.608L149.033 296.132L149.033 295.083Z" fill="white"/>
<path d="M150.849 296.132L149.941 295.607L149.941 296.656L150.849 297.18L150.849 296.132Z" fill="white"/>
<path d="M138.136 290.889L137.228 290.365L137.228 291.413L138.136 291.938L138.136 290.889Z" fill="white"/>
<path d="M139.952 291.937L139.044 291.413L139.044 292.462L139.952 292.986L139.952 291.937Z" fill="white"/>
<path d="M141.769 292.986L140.861 292.462L140.861 293.511L141.769 294.035L141.769 292.986Z" fill="white"/>
<path d="M143.585 294.035L142.676 293.51L142.676 294.559L143.585 295.083L143.585 294.035Z" fill="white"/>
<path d="M145.4 295.083L144.492 294.559L144.492 295.607L145.4 296.132L145.4 295.083Z" fill="white"/>
<path d="M147.217 296.132L146.309 295.608L146.309 296.656L147.217 297.181L147.217 296.132Z" fill="white"/>
<path d="M149.033 297.18L148.125 296.656L148.125 297.705L149.033 298.229L149.033 297.18Z" fill="white"/>
<path d="M150.849 298.229L149.941 297.705L149.941 298.753L150.849 299.277L150.849 298.229Z" fill="white"/>
<path d="M138.136 292.986L137.228 292.462L137.228 293.511L138.136 294.035L138.136 292.986Z" fill="white"/>
<path d="M139.952 294.035L139.044 293.51L139.044 294.559L139.952 295.083L139.952 294.035Z" fill="white"/>
<path d="M141.769 295.084L140.861 294.559L140.861 295.608L141.769 296.132L141.769 295.084Z" fill="white"/>
<path d="M143.585 296.132L142.676 295.608L142.676 296.656L143.585 297.181L143.585 296.132Z" fill="white"/>
<path d="M145.4 297.18L144.492 296.656L144.492 297.705L145.4 298.229L145.4 297.18Z" fill="white"/>
<path d="M147.217 298.229L146.309 297.705L146.309 298.754L147.217 299.278L147.217 298.229Z" fill="white"/>
<path d="M149.033 299.278L148.125 298.753L148.125 299.802L149.033 300.326L149.033 299.278Z" fill="white"/>
<path d="M150.849 300.326L149.941 299.802L149.941 300.85L150.849 301.375L150.849 300.326Z" fill="white"/>
<path d="M167.192 307.142L165.376 306.094L165.376 308.191L167.192 309.239L167.192 307.142Z" fill="white"/>
<path d="M163.559 305.045L161.743 303.996L161.743 306.093L163.559 307.142L163.559 305.045Z" fill="white"/>
<path d="M159.93 302.95L158.114 301.901L158.114 303.998L159.93 305.047L159.93 302.95Z" fill="white"/>
<defs>
<linearGradient id="paint0_linear" x1="6" y1="11" x2="91.5" y2="13" gradientUnits="userSpaceOnUse">
<stop stop-color="#F8B027"/>
<stop offset="1" stop-color="white" stop-opacity="0"/>
</linearGradient>
<linearGradient id="paint1_linear" x1="361.834" y1="243.182" x2="361.834" y2="272.849" gradientUnits="userSpaceOnUse">
<stop stop-color="#FFD231"/>
<stop offset="1" stop-color="#F2961F"/>
</linearGradient>
<linearGradient id="paint2_linear" x1="361.834" y1="243.182" x2="361.834" y2="272.849" gradientUnits="userSpaceOnUse">
<stop stop-color="#FFD231"/>
<stop offset="1" stop-color="#F2961F"/>
</linearGradient>
<linearGradient id="paint3_linear" x1="6" y1="11" x2="91.5" y2="13" gradientUnits="userSpaceOnUse">
<stop stop-color="#F8B027"/>
<stop offset="1" stop-color="white" stop-opacity="0"/>
</linearGradient>
<linearGradient id="paint4_linear" x1="344.834" y1="200.182" x2="344.834" y2="229.849" gradientUnits="userSpaceOnUse">
<stop stop-color="#FFD231"/>
<stop offset="1" stop-color="#F2961F"/>
</linearGradient>
<linearGradient id="paint5_linear" x1="344.834" y1="200.182" x2="344.834" y2="229.849" gradientUnits="userSpaceOnUse">
<stop stop-color="#FFD231"/>
<stop offset="1" stop-color="#F2961F"/>
</linearGradient>
<linearGradient id="paint6_linear" x1="6" y1="11" x2="91.5" y2="13" gradientUnits="userSpaceOnUse">
<stop stop-color="#F8B027"/>
<stop offset="1" stop-color="white" stop-opacity="0"/>
</linearGradient>
<linearGradient id="paint7_linear" x1="212.059" y1="76.1141" x2="212.059" y2="107.496" gradientUnits="userSpaceOnUse">
<stop stop-color="#FFD231"/>
<stop offset="1" stop-color="#F2961F"/>
</linearGradient>
<linearGradient id="paint8_linear" x1="212.059" y1="87.4346" x2="212.059" y2="118.817" gradientUnits="userSpaceOnUse">
<stop stop-color="#FFD231"/>
<stop offset="1" stop-color="#F2961F"/>
</linearGradient>
<linearGradient id="paint9_linear" x1="212.059" y1="64.7936" x2="212.059" y2="96.1756" gradientUnits="userSpaceOnUse">
<stop stop-color="#FFD231"/>
<stop offset="1" stop-color="#F2961F"/>
</linearGradient>
<linearGradient id="paint10_linear" x1="212.059" y1="98.7429" x2="212.059" y2="130.137" gradientUnits="userSpaceOnUse">
<stop stop-color="#FFD231"/>
<stop offset="1" stop-color="#F2961F"/>
</linearGradient>
<linearGradient id="paint11_linear" x1="212.059" y1="110.076" x2="212.059" y2="141.458" gradientUnits="userSpaceOnUse">
<stop stop-color="#FFD231"/>
<stop offset="1" stop-color="#F2961F"/>
</linearGradient>
<linearGradient id="paint12_linear" x1="212.059" y1="121.396" x2="212.059" y2="152.778" gradientUnits="userSpaceOnUse">
<stop stop-color="#FFD231"/>
<stop offset="1" stop-color="#F2961F"/>
</linearGradient>
<linearGradient id="paint13_linear" x1="212.059" y1="19.5114" x2="212.059" y2="50.8935" gradientUnits="userSpaceOnUse">
<stop stop-color="#FFD231"/>
<stop offset="1" stop-color="#F2961F"/>
</linearGradient>
<linearGradient id="paint14_linear" x1="212.059" y1="30.832" x2="212.059" y2="62.214" gradientUnits="userSpaceOnUse">
<stop stop-color="#FFD231"/>
<stop offset="1" stop-color="#F2961F"/>
</linearGradient>
<linearGradient id="paint15_linear" x1="212.059" y1="42.1525" x2="212.059" y2="73.5345" gradientUnits="userSpaceOnUse">
<stop stop-color="#FFD231"/>
<stop offset="1" stop-color="#F2961F"/>
</linearGradient>
<linearGradient id="paint16_linear" x1="212.059" y1="53.473" x2="212.059" y2="84.8551" gradientUnits="userSpaceOnUse">
<stop stop-color="#FFD231"/>
<stop offset="1" stop-color="#F2961F"/>
</linearGradient>
<linearGradient id="paint17_linear" x1="259.652" y1="103.242" x2="259.652" y2="134.636" gradientUnits="userSpaceOnUse">
<stop stop-color="#FFD231"/>
<stop offset="1" stop-color="#F2961F"/>
</linearGradient>
<linearGradient id="paint18_linear" x1="259.652" y1="114.562" x2="259.652" y2="145.957" gradientUnits="userSpaceOnUse">
<stop stop-color="#FFD231"/>
<stop offset="1" stop-color="#F2961F"/>
</linearGradient>
<linearGradient id="paint19_linear" x1="259.652" y1="91.9212" x2="259.652" y2="123.315" gradientUnits="userSpaceOnUse">
<stop stop-color="#FFD231"/>
<stop offset="1" stop-color="#F2961F"/>
</linearGradient>
<linearGradient id="paint20_linear" x1="259.652" y1="125.883" x2="259.652" y2="157.265" gradientUnits="userSpaceOnUse">
<stop stop-color="#FFD231"/>
<stop offset="1" stop-color="#F2961F"/>
</linearGradient>
<linearGradient id="paint21_linear" x1="259.652" y1="137.203" x2="259.652" y2="168.585" gradientUnits="userSpaceOnUse">
<stop stop-color="#FFD231"/>
<stop offset="1" stop-color="#F2961F"/>
</linearGradient>
<linearGradient id="paint22_linear" x1="259.652" y1="148.524" x2="259.652" y2="179.906" gradientUnits="userSpaceOnUse">
<stop stop-color="#FFD231"/>
<stop offset="1" stop-color="#F2961F"/>
</linearGradient>
<linearGradient id="paint23_linear" x1="259.652" y1="46.6392" x2="259.652" y2="78.0335" gradientUnits="userSpaceOnUse">
<stop stop-color="#FFD231"/>
<stop offset="1" stop-color="#F2961F"/>
</linearGradient>
<linearGradient id="paint24_linear" x1="259.652" y1="57.972" x2="259.652" y2="89.354" gradientUnits="userSpaceOnUse">
<stop stop-color="#FFD231"/>
<stop offset="1" stop-color="#F2961F"/>
</linearGradient>
<linearGradient id="paint25_linear" x1="259.652" y1="69.2803" x2="259.652" y2="100.675" gradientUnits="userSpaceOnUse">
<stop stop-color="#FFD231"/>
<stop offset="1" stop-color="#F2961F"/>
</linearGradient>
<linearGradient id="paint26_linear" x1="259.652" y1="80.6008" x2="259.652" y2="111.995" gradientUnits="userSpaceOnUse">
<stop stop-color="#FFD231"/>
<stop offset="1" stop-color="#F2961F"/>
</linearGradient>
<linearGradient id="paint27_linear" x1="295.834" y1="177.182" x2="295.834" y2="206.849" gradientUnits="userSpaceOnUse">
<stop stop-color="#FFD231"/>
<stop offset="1" stop-color="#F2961F"/>
</linearGradient>
<linearGradient id="paint28_linear" x1="295.834" y1="177.182" x2="295.834" y2="206.849" gradientUnits="userSpaceOnUse">
<stop stop-color="#FFD231"/>
<stop offset="1" stop-color="#F2961F"/>
</linearGradient>
<linearGradient id="paint29_linear" x1="433.059" y1="185.114" x2="433.059" y2="216.496" gradientUnits="userSpaceOnUse">
<stop stop-color="#FFD231"/>
<stop offset="1" stop-color="#F2961F"/>
</linearGradient>
<linearGradient id="paint30_linear" x1="433.059" y1="196.435" x2="433.059" y2="227.817" gradientUnits="userSpaceOnUse">
<stop stop-color="#FFD231"/>
<stop offset="1" stop-color="#F2961F"/>
</linearGradient>
<linearGradient id="paint31_linear" x1="433.059" y1="173.794" x2="433.059" y2="205.176" gradientUnits="userSpaceOnUse">
<stop stop-color="#FFD231"/>
<stop offset="1" stop-color="#F2961F"/>
</linearGradient>
<linearGradient id="paint32_linear" x1="433.059" y1="207.743" x2="433.059" y2="239.137" gradientUnits="userSpaceOnUse">
<stop stop-color="#FFD231"/>
<stop offset="1" stop-color="#F2961F"/>
</linearGradient>
<linearGradient id="paint33_linear" x1="433.059" y1="219.076" x2="433.059" y2="250.458" gradientUnits="userSpaceOnUse">
<stop stop-color="#FFD231"/>
<stop offset="1" stop-color="#F2961F"/>
</linearGradient>
<linearGradient id="paint34_linear" x1="433.059" y1="230.396" x2="433.059" y2="261.778" gradientUnits="userSpaceOnUse">
<stop stop-color="#FFD231"/>
<stop offset="1" stop-color="#F2961F"/>
</linearGradient>
<linearGradient id="paint35_linear" x1="433.059" y1="128.511" x2="433.059" y2="159.893" gradientUnits="userSpaceOnUse">
<stop stop-color="#FFD231"/>
<stop offset="1" stop-color="#F2961F"/>
</linearGradient>
<linearGradient id="paint36_linear" x1="433.059" y1="139.832" x2="433.059" y2="171.214" gradientUnits="userSpaceOnUse">
<stop stop-color="#FFD231"/>
<stop offset="1" stop-color="#F2961F"/>
</linearGradient>
<linearGradient id="paint37_linear" x1="433.059" y1="151.152" x2="433.059" y2="182.535" gradientUnits="userSpaceOnUse">
<stop stop-color="#FFD231"/>
<stop offset="1" stop-color="#F2961F"/>
</linearGradient>
<linearGradient id="paint38_linear" x1="433.059" y1="162.473" x2="433.059" y2="193.855" gradientUnits="userSpaceOnUse">
<stop stop-color="#FFD231"/>
<stop offset="1" stop-color="#F2961F"/>
</linearGradient>
<linearGradient id="paint39_linear" x1="480.652" y1="212.242" x2="480.652" y2="243.636" gradientUnits="userSpaceOnUse">
<stop stop-color="#FFD231"/>
<stop offset="1" stop-color="#F2961F"/>
</linearGradient>
<linearGradient id="paint40_linear" x1="480.652" y1="223.562" x2="480.652" y2="254.957" gradientUnits="userSpaceOnUse">
<stop stop-color="#FFD231"/>
<stop offset="1" stop-color="#F2961F"/>
</linearGradient>
<linearGradient id="paint41_linear" x1="480.652" y1="200.921" x2="480.652" y2="232.315" gradientUnits="userSpaceOnUse">
<stop stop-color="#FFD231"/>
<stop offset="1" stop-color="#F2961F"/>
</linearGradient>
<linearGradient id="paint42_linear" x1="480.652" y1="234.883" x2="480.652" y2="266.265" gradientUnits="userSpaceOnUse">
<stop stop-color="#FFD231"/>
<stop offset="1" stop-color="#F2961F"/>
</linearGradient>
<linearGradient id="paint43_linear" x1="480.652" y1="246.203" x2="480.652" y2="277.585" gradientUnits="userSpaceOnUse">
<stop stop-color="#FFD231"/>
<stop offset="1" stop-color="#F2961F"/>
</linearGradient>
<linearGradient id="paint44_linear" x1="480.652" y1="257.524" x2="480.652" y2="288.906" gradientUnits="userSpaceOnUse">
<stop stop-color="#FFD231"/>
<stop offset="1" stop-color="#F2961F"/>
</linearGradient>
<linearGradient id="paint45_linear" x1="480.652" y1="155.639" x2="480.652" y2="187.033" gradientUnits="userSpaceOnUse">
<stop stop-color="#FFD231"/>
<stop offset="1" stop-color="#F2961F"/>
</linearGradient>
<linearGradient id="paint46_linear" x1="480.652" y1="166.972" x2="480.652" y2="198.354" gradientUnits="userSpaceOnUse">
<stop stop-color="#FFD231"/>
<stop offset="1" stop-color="#F2961F"/>
</linearGradient>
<linearGradient id="paint47_linear" x1="480.652" y1="178.28" x2="480.652" y2="209.675" gradientUnits="userSpaceOnUse">
<stop stop-color="#FFD231"/>
<stop offset="1" stop-color="#F2961F"/>
</linearGradient>
<linearGradient id="paint48_linear" x1="480.652" y1="189.601" x2="480.652" y2="220.995" gradientUnits="userSpaceOnUse">
<stop stop-color="#FFD231"/>
<stop offset="1" stop-color="#F2961F"/>
</linearGradient>
<linearGradient id="paint49_linear" x1="241.359" y1="210.325" x2="241.359" y2="268.402" gradientUnits="userSpaceOnUse">
<stop stop-color="#FFD231"/>
<stop offset="1" stop-color="#F2961F"/>
</linearGradient>
<linearGradient id="paint50_linear" x1="237.485" y1="212.376" x2="237.485" y2="270.443" gradientUnits="userSpaceOnUse">
<stop stop-color="#FFD231"/>
<stop offset="1" stop-color="#F2961F"/>
</linearGradient>
<linearGradient id="paint51_linear" x1="237.128" y1="235.579" x2="237.128" y2="269.088" gradientUnits="userSpaceOnUse">
<stop stop-color="#FFD231"/>
<stop offset="1" stop-color="#F2961F"/>
</linearGradient>
<linearGradient id="paint52_linear" x1="246.119" y1="223.622" x2="246.119" y2="230.468" gradientUnits="userSpaceOnUse">
<stop stop-color="#FFD231"/>
<stop offset="1" stop-color="#F2961F"/>
</linearGradient>
<linearGradient id="paint53_linear" x1="239.083" y1="210.341" x2="239.083" y2="223.547" gradientUnits="userSpaceOnUse">
<stop stop-color="#FFD231"/>
<stop offset="1" stop-color="#F2961F"/>
</linearGradient>
<linearGradient id="paint54_linear" x1="225.154" y1="217.238" x2="225.154" y2="229.54" gradientUnits="userSpaceOnUse">
<stop stop-color="#FFD231"/>
<stop offset="1" stop-color="#F2961F"/>
</linearGradient>
<linearGradient id="paint55_linear" x1="152.21" y1="267.561" x2="147.397" y2="275.897" gradientUnits="userSpaceOnUse">
<stop stop-color="#FFD231"/>
<stop offset="1" stop-color="#F2961F"/>
</linearGradient>
</defs>
</svg>
