<svg width="421" height="457" viewBox="0 0 421 457" fill="none" xmlns="http://www.w3.org/2000/svg">
<path d="M79.5562 33.1492L30.926 61.4523L119.268 112.185L167.898 84.148L79.5562 33.1492Z" fill="#454A56"/>
<path d="M256.24 135.159L167.898 84.1481L119.268 112.185L207.609 163.462L256.24 135.159Z" fill="#454A56"/>
<path d="M256.24 135.159L207.609 163.462L295.963 214.461L344.581 186.158L256.24 135.159Z" fill="#454A56"/>
<path d="M344.581 186.158L295.963 214.461L340.037 239.912L388.667 211.609L344.581 186.158Z" fill="#454A56"/>
<path d="M340.037 239.912L339.941 275.37L388.559 247.067L388.667 211.609L340.037 239.912Z" fill="#242830"/>
<path d="M339.941 275.37L339.832 311.613L388.402 283.213L388.498 246.958L339.941 275.37Z" fill="#242830"/>
<path d="M339.941 311.673L339.832 347.916L388.402 319.516L388.498 283.261L339.941 311.673Z" fill="#242830"/>
<path d="M30.926 133.262L30.8294 169.517L119.171 220.516L119.268 184.261L30.926 133.262Z" fill="#353A45"/>
<path d="M207.609 235.271L119.268 184.26L119.171 220.516L207.513 271.527L207.609 235.271Z" fill="#353A45"/>
<path d="M207.609 235.271L207.513 271.527L295.854 322.525L295.963 286.282L207.609 235.271Z" fill="#353A45"/>
<path d="M30.926 61.4524L30.8294 96.8978L119.171 147.909L119.268 112.185L30.926 61.4524Z" fill="#353A45"/>
<path d="M207.609 163.462L119.268 112.185L119.171 147.909L207.513 199.717L207.609 163.462Z" fill="#353A45"/>
<path d="M207.609 163.462L207.513 199.717L295.854 249.979L295.963 214.461L207.609 163.462Z" fill="#353A45"/>
<path d="M74.9034 122.349L74.8067 158.604L163.148 209.615L163.257 173.36L74.9034 122.349Z" fill="#353A45"/>
<path d="M251.599 224.359L163.257 173.36L163.148 209.615L251.49 260.614L251.599 224.359Z" fill="#353A45"/>
<path d="M251.599 224.359L251.49 260.614L339.832 311.613L339.941 275.37L251.599 224.359Z" fill="#353A45"/>
<path d="M30.8294 96.8977V133.213L74.8068 158.604L74.9035 122.349L30.8294 96.8977Z" fill="#353A45"/>
<path d="M295.963 214.461V249.979L339.941 275.37L340.037 239.912L295.963 214.461Z" fill="#353A45"/>
<path d="M295.963 286.282L295.854 322.526L339.832 347.916V311.613L295.963 286.282Z" fill="#353A45"/>
<path d="M339.941 347.07L339.832 383.325L388.402 354.913L388.498 318.658L339.941 347.07Z" fill="#242830"/>
<path d="M339.941 383.374L339.832 419.629L388.402 391.217L388.498 354.962L339.941 383.374Z" fill="#353A45"/>
<path d="M30.926 204.962L30.8294 241.217L119.171 292.228L119.268 255.973L30.926 204.962Z" fill="#353A45"/>
<path d="M207.609 306.972L119.268 255.973L119.171 292.228L207.513 343.227L207.609 306.972Z" fill="#353A45"/>
<path d="M207.609 306.972L207.513 343.227L295.854 394.238L295.963 357.983L207.609 306.972Z" fill="#353A45"/>
<path d="M74.9034 194.05L74.8067 230.305L163.148 281.316L163.257 245.06L74.9034 194.05Z" fill="#353A45"/>
<path d="M251.599 296.059L163.257 245.06L163.148 281.316L251.49 332.314L251.599 296.059Z" fill="#353A45"/>
<path d="M251.599 296.059L251.49 332.314L339.832 383.325L339.941 347.07L251.599 296.059Z" fill="#353A45"/>
<path d="M30.8294 168.598V204.914L74.8068 230.305L74.9035 194.05L30.8294 168.598Z" fill="#353A45"/>
<path d="M295.963 357.983L295.854 394.238L339.832 419.629V383.325L295.963 357.983Z" fill="#353A45"/>
<path d="M339.832 419.629L339.735 455.872L388.293 427.472L388.401 391.217L339.832 419.629Z" fill="#353A45"/>
<path d="M74.8069 266.608L74.6981 302.863L163.04 353.874L163.149 317.619L74.8069 266.608Z" fill="#353A45"/>
<path d="M251.49 368.618L163.148 317.619L163.04 353.874L251.393 404.873L251.49 368.618Z" fill="#353A45"/>
<path d="M251.49 368.618L251.393 404.873L339.735 455.872L339.832 419.629L251.49 368.618Z" fill="#353A45"/>
<path d="M30.7205 241.157V277.472L74.698 302.863L74.8067 266.608L30.7205 241.157Z" fill="#353A45"/>
<path opacity="0.5" d="M29.9593 241.157V277.472C29.9614 277.607 29.998 277.739 30.0657 277.855C30.1335 277.972 30.23 278.069 30.346 278.137L74.3235 303.516L162.665 354.515L251.007 405.526L339.348 456.524C339.466 456.592 339.6 456.625 339.735 456.621C339.867 456.625 339.996 456.591 340.11 456.524L388.667 428.112C388.781 428.045 388.875 427.95 388.941 427.836C389.007 427.721 389.041 427.592 389.042 427.46L389.151 391.205L389.247 354.95C389.247 354.819 389.214 354.69 389.151 354.575L389.247 318.646C389.245 318.515 389.212 318.387 389.151 318.272L389.247 283.225C389.246 283.09 389.213 282.958 389.151 282.838L389.247 247.26C389.28 247.187 389.301 247.11 389.308 247.03L389.417 211.573C389.416 211.439 389.38 211.309 389.312 211.194C389.244 211.079 389.147 210.985 389.03 210.92L345.004 185.505L256.663 134.494L168.309 83.4955L79.9672 32.4846C79.8511 32.4189 79.7199 32.3844 79.5865 32.3844C79.4531 32.3844 79.322 32.4189 79.2058 32.4846L30.5515 60.7877C30.5013 60.8258 30.4566 60.8705 30.4185 60.9207C30.3643 60.9628 30.3156 61.0115 30.2735 61.0657C30.2626 61.1256 30.2626 61.187 30.2735 61.247C30.2629 61.315 30.2629 61.3843 30.2735 61.4524L30.1768 96.8978V133.213C30.1773 133.344 30.2106 133.473 30.2735 133.588L30.1768 168.635V204.95C30.1787 205.085 30.2118 205.217 30.2735 205.337L30.1768 240.806C30.073 240.901 29.9976 241.022 29.9593 241.157ZM119.932 219.972L120.005 193.759V185.59L162.738 210.268L206.824 235.719V260.42V270.089L163.692 245.193L119.932 219.972ZM162.52 246.402L162.447 271.78V279.95L119.715 255.272L75.6286 229.821L75.7011 203.512V196.261L118.821 221.156L162.52 246.402ZM164.019 254.559V247.308L207.15 272.203L250.837 297.437V321.232V331.009L208.105 306.344L163.91 280.856L164.019 254.559ZM208.31 270.983L208.383 246.378V236.601L251.128 261.279L295.202 286.73L295.129 313.039V321.099L251.949 296.204L208.31 270.983ZM208.31 198.473L208.383 174.641V164.779L295.202 214.908L295.105 248.601L251.949 223.706L208.31 198.473ZM250.825 225.265V249.544V259.321L208.093 234.643L164.007 209.192L164.079 182.883V175.124L207.198 200.406L250.825 225.265ZM206.775 189.397V197.627L163.644 172.731L119.945 147.498L120.029 119.702V113.479L149.033 130.325L206.836 163.873L206.775 189.397ZM162.52 174.194L162.447 200.116V208.286L119.715 183.608L75.6286 158.157L75.7011 131.848V123.666L118.821 148.561L162.52 174.194ZM118.543 184.72L118.47 211.029V219.09L75.3507 194.194L31.6512 168.973L31.7479 134.591L74.4806 159.269L118.543 184.72ZM118.543 256.42L118.47 282.729V290.911L31.6512 240.782L31.7479 206.292L74.4806 230.969L118.543 256.42ZM162.351 342.756V352.557L75.5078 302.428L75.5924 276.107V267.925L90.7954 276.711L162.411 318.054L162.351 342.756ZM119.932 291.733L120.005 265.412V257.254L162.738 281.92L206.848 307.443V332.145V341.934L119.932 291.733ZM250.656 395.326V403.507L163.837 353.379V328.677V318.888L250.741 369.077L250.656 395.326ZM208.274 342.744L208.347 318.03V308.253L251.091 332.931L295.165 358.382L295.093 384.691V392.873L208.274 342.744ZM338.962 446.421V454.603L252.143 404.474L252.215 378.153V369.971L267.418 378.757L339.034 420.1L338.962 446.421ZM339.034 418.336L334.007 415.435L296.543 393.827L296.616 367.506V359.349L338.913 383.797L339.034 418.336ZM339.034 373.863V382.044L296.289 357.355L252.203 331.903L252.276 307.214V298.331L295.455 323.154L339.143 348.388L339.034 373.863ZM296.664 321.945V295.733V287.563L338.962 312.024V346.454L296.664 321.945ZM339.131 302.09V310.271L296.386 285.582L252.3 260.13L252.372 235.429V226.063L295.455 250.644C295.514 250.669 295.575 250.689 295.637 250.704L339.143 275.817L339.131 302.09ZM339.24 266.294V274.016L296.785 249.496V215.778L301.969 218.788L339.336 240.359L339.24 266.294ZM387.58 427.025L340.545 454.53V447.872L340.617 420.076L387.652 392.558L387.58 427.025ZM387.688 390.77L340.654 418.287L340.75 383.797L387.785 356.279L387.688 390.77ZM340.654 381.984V375.325L340.726 348.291L387.737 320.737L387.64 354.43L340.654 381.984ZM387.688 319.069L340.654 346.587L340.75 312.096L387.785 284.578L387.688 319.069ZM340.654 310.283V303.624L340.738 275.829L387.773 248.444L387.676 282.802L340.654 310.283ZM387.858 246.474L340.726 274.028V267.563L340.799 240.347L387.93 212.926L387.858 246.474ZM387.193 211.597L340.061 239.018L297.498 214.449L344.629 187.028L387.193 211.597ZM343.119 186.146L295.987 213.579L209.168 163.45L256.3 136.029L343.119 186.146ZM254.765 135.147L250.801 137.455L207.658 162.568L200.189 158.229L120.839 112.173L167.97 85.0182L254.765 135.147ZM79.6047 34.0194L166.424 84.136L119.292 111.303L65.6102 80.4622L32.473 61.4282L79.6047 34.0194ZM31.7358 62.7576L118.555 112.62L118.482 139.981V146.579L75.3628 121.684L31.6633 96.4507L31.7358 62.7576ZM31.6391 98.203L74.1905 122.784L74.0697 149.129V157.299L31.6149 132.79L31.6391 98.203ZM31.6391 170.822L74.1905 195.391L74.118 220.769V228.927L31.6633 204.418L31.6391 170.822ZM31.5303 242.462L37.5729 245.955L74.106 267.031L74.0335 293.352V301.534L31.5666 277.025L31.5303 242.462Z" fill="white"/>
<path d="M154.06 245.193C150.314 243.03 147.208 237.749 145.081 232.903C144.847 232.366 144.452 231.916 143.951 231.614C143.449 231.313 142.866 231.175 142.282 231.22C141.699 231.265 141.144 231.491 140.695 231.866C140.245 232.242 139.924 232.747 139.776 233.314C130.664 271.2 157.758 302.984 159.281 304.772C166.021 313.71 174.42 321.264 184.019 327.021C189.881 330.417 195.947 332.653 201.603 332.906C216.516 333.632 222.716 323.673 224.214 299.6C225.737 275.067 217.579 251.26 212.504 239.018C212.273 238.484 211.881 238.035 211.383 237.733C210.885 237.432 210.306 237.292 209.726 237.335C209.145 237.377 208.592 237.599 208.144 237.97C207.695 238.341 207.373 238.842 207.222 239.404C206.821 240.895 206.341 242.363 205.784 243.803C205.576 244.34 205.206 244.799 204.728 245.118C204.249 245.438 203.683 245.602 203.107 245.589C202.532 245.576 201.974 245.386 201.511 245.045C201.047 244.704 200.699 244.228 200.515 243.683C196.563 232.939 191.198 225.918 185.772 213.965C182.233 205.803 179.99 197.139 179.125 188.285C179.079 187.859 178.937 187.449 178.709 187.087C178.482 186.724 178.175 186.417 177.812 186.19C177.449 185.964 177.039 185.822 176.613 185.777C176.188 185.731 175.757 185.783 175.354 185.928C142.169 197.131 154.737 245.592 154.06 245.193Z" fill="#D3582E"/>
<path d="M145.988 246.45C142.241 244.287 139.135 238.994 136.996 234.148C136.763 233.611 136.367 233.161 135.866 232.859C135.364 232.557 134.781 232.42 134.197 232.465C133.614 232.51 133.059 232.736 132.61 233.111C132.16 233.486 131.839 233.992 131.691 234.558C122.579 272.457 149.686 304.241 151.208 306.029C157.947 314.963 166.341 322.517 175.934 328.278C181.808 331.674 187.862 333.897 193.53 334.163C208.431 334.876 214.631 324.93 216.129 300.857C217.652 276.324 209.507 252.517 204.431 240.275C204.202 239.736 203.811 239.283 203.311 238.978C202.812 238.673 202.23 238.532 201.646 238.574C201.062 238.617 200.507 238.841 200.057 239.215C199.607 239.59 199.286 240.095 199.138 240.661L197.712 245.06C197.5 245.596 197.129 246.053 196.65 246.371C196.17 246.689 195.604 246.852 195.029 246.839C194.454 246.826 193.896 246.637 193.432 246.297C192.967 245.958 192.618 245.484 192.43 244.94C188.479 234.196 183.113 227.175 177.687 215.21C174.147 207.053 171.905 198.392 171.04 189.542C170.994 189.116 170.852 188.706 170.624 188.344C170.397 187.981 170.09 187.674 169.727 187.447C169.364 187.22 168.954 187.079 168.528 187.034C168.103 186.988 167.672 187.04 167.269 187.185C134.108 198.388 146.664 246.849 145.988 246.45Z" fill="#FF6D3B"/>
<path fill-rule="evenodd" clip-rule="evenodd" d="M185.549 271.224L181.248 260.022L176.684 266.119L178.824 271.692L167.38 286.983L171.682 298.186L176.245 292.088L174.105 286.515L185.549 271.224Z" fill="#FCFCFC"/>
<mask id="mask0" mask-type="alpha" maskUnits="userSpaceOnUse" x="160" y="248" width="17" height="40">
<path d="M161.258 248.508L176.806 257.462L176.346 287.804L160.798 278.85L161.258 248.508Z" fill="#FCFCFC"/>
</mask>
<g mask="url(#mask0)">
<path fill-rule="evenodd" clip-rule="evenodd" d="M160.929 270.199L165.231 281.402L176.675 266.112L172.373 254.909L160.929 270.199Z" fill="#FCFCFC"/>
</g>
<path fill-rule="evenodd" clip-rule="evenodd" d="M176.247 292.09L180.549 303.293L191.993 288.003L187.691 276.8L176.247 292.09Z" fill="#FCFCFC"/>
<g opacity="0.5">
<path opacity="0.5" d="M214.486 310.622C214.019 314.541 213.102 318.393 211.754 322.103C210.47 325.826 208.079 329.068 204.902 331.396C201.473 333.411 197.527 334.374 193.554 334.163C197.579 334.604 201.641 333.798 205.192 331.855C208.591 329.57 211.207 326.297 212.685 322.477C214.176 318.727 215.215 314.812 215.779 310.815C216.405 306.849 216.808 302.85 216.987 298.839C217.371 290.804 216.869 282.751 215.489 274.826C214.154 266.908 212.219 259.102 209.7 251.478C208.419 247.683 207.005 243.933 205.458 240.226L205.313 239.864L205.083 239.429C204.92 239.133 204.712 238.864 204.467 238.631C203.974 238.155 203.36 237.825 202.691 237.676C202.033 237.547 201.354 237.59 200.718 237.802C200.083 238.013 199.513 238.387 199.065 238.885C198.646 239.374 198.344 239.953 198.183 240.577L197.724 241.991L196.829 244.795C196.713 245.099 196.515 245.366 196.257 245.567C195.999 245.767 195.691 245.893 195.367 245.931C195.03 245.969 194.689 245.92 194.378 245.786C194.066 245.653 193.795 245.44 193.591 245.169C193.483 245.034 193.397 244.884 193.337 244.722C193.252 244.541 193.156 244.263 193.071 244.045L192.515 242.631C192.128 241.701 191.754 240.77 191.306 239.852C189.675 236.166 187.681 232.601 185.747 229.181C183.814 225.761 181.82 222.256 180.031 218.703C179.137 216.939 178.267 215.15 177.481 213.337C176.696 211.524 175.995 209.712 175.354 207.802C174.058 204.047 173.021 200.207 172.249 196.309C171.862 194.364 171.523 192.394 171.282 190.424C171.232 189.918 171.143 189.417 171.016 188.925C170.833 188.449 170.524 188.031 170.122 187.717C169.724 187.401 169.251 187.193 168.749 187.113C168.248 187.032 167.734 187.082 167.257 187.258C167.73 187.11 168.232 187.086 168.717 187.188C169.201 187.289 169.651 187.513 170.025 187.838C170.383 188.164 170.646 188.582 170.786 189.046C170.898 189.526 170.958 190.016 170.967 190.509C171.137 192.491 171.39 194.485 171.705 196.454C172.333 200.414 173.23 204.326 174.387 208.165C174.98 210.086 175.656 211.972 176.406 213.845C177.155 215.718 178.001 217.47 178.823 219.331C180.539 222.957 182.448 226.486 184.309 230.003C186.17 233.519 188.044 237.024 189.627 240.637C190.038 241.532 190.388 242.45 190.835 243.356L191.355 244.734C191.452 244.976 191.512 245.169 191.633 245.459C191.754 245.76 191.912 246.044 192.104 246.305C192.5 246.839 193.028 247.26 193.636 247.527C194.245 247.794 194.912 247.898 195.573 247.828C196.245 247.758 196.884 247.501 197.417 247.086C197.951 246.672 198.359 246.117 198.594 245.483L199.549 242.607L200.02 241.181C200.103 240.829 200.268 240.502 200.503 240.226C200.731 239.991 201.014 239.816 201.326 239.719C201.639 239.622 201.971 239.605 202.292 239.671C202.601 239.75 202.884 239.908 203.114 240.13C203.23 240.238 203.328 240.365 203.404 240.504L203.513 240.722L203.658 241.06C205.156 244.686 206.51 248.456 207.754 252.215C212.782 267.224 215.912 283.02 215.428 298.863C215.335 302.797 215.02 306.723 214.486 310.622Z" fill="white"/>
</g>
<path d="M21.3547 216.334C15.8318 219.96 10.1156 204.999 6.85263 194.158C-7.49231 211.367 3.94014 245.06 11.6866 256.831C17.3062 265.291 23.7717 273.074 30.6481 277.473L30.8535 61.4524L79.5562 33.113L388.667 211.609L388.51 352.762C384.534 354.72 383.676 336.278 374.999 335.094C378.625 346.393 374.588 360.267 367.893 364.944C354.491 357.016 361.391 327.42 361.391 327.782C334.998 350.599 344.678 376.123 349.548 403.181C354.418 430.239 339.747 455.872 339.747 455.872C346.599 457.153 377.042 450.409 393.646 429.623C404.523 416.027 435.098 357.983 412.91 317.619C405.055 330.417 382.915 324.133 398.408 285.654C400.619 280.143 414.288 253.23 417.466 226.437C418.119 220.878 416.112 205.24 405.828 196.442C409.345 210.509 396.982 216.6 394.456 206.703C390.359 190.654 385.428 173.589 372.437 149.649C351.325 175.1 320.471 165.202 338.176 129.346C326.611 124.065 309.172 142.64 303.625 130.555C298.984 120.379 298.295 112.246 281.872 99.9433C283.25 117.056 272.542 128.863 259.563 123.727C251.671 120.609 247.2 112.439 243.369 104.862C230.305 79.0361 234.378 45.8506 193.82 26.0916C196.237 43.4699 195.935 61.5008 184.43 65.3196C177.53 67.6158 164.043 67.2412 159.172 56.0021C156.079 48.8961 150.23 27.3122 127.087 13.3661C126.905 23.8921 126.277 48.2918 113.793 42.3702C104.222 36.9561 104.633 16.5202 72.704 6.90056C75.411 19.3602 72.9819 31.9649 66.6615 32.0858C52.377 32.3516 54.7215 9.31756 54.9874 0C17.85 19.4086 34.902 55.0111 22.3336 63.2047C19.1552 65.2834 16.4361 57.6215 13.7169 51.8932C-10.9849 132.984 30.2372 210.4 21.3547 216.334Z" fill="url(#paint0_linear)"/>
<path opacity="0.3" d="M404.402 348.448C399.145 336.532 392.861 329.523 388.534 322.308V352.762C388.291 352.895 388.009 352.94 387.736 352.889C387.463 352.839 387.216 352.696 387.036 352.484C390.94 363.844 393.998 375.478 396.184 387.289C400.196 395.265 411.109 363.699 404.402 348.448Z" fill="#AC435F"/>
<defs>
<linearGradient id="paint0_linear" x1="210.396" y1="0" x2="210.396" y2="456.022" gradientUnits="userSpaceOnUse">
<stop stop-color="#FFD231"/>
<stop offset="1" stop-color="#F2961F"/>
</linearGradient>
</defs>
</svg>
