<svg width="29" height="29" viewBox="0 0 29 29" fill="none" xmlns="http://www.w3.org/2000/svg">
<circle cx="14.5" cy="14.5" r="14.5" fill="#F49F22"/>
<path d="M19.9375 10.1905L18.5073 9.06252C18.463 9.02605 18.4083 9 18.3458 9C18.2833 9 18.226 9.02605 18.1817 9.06513L12.9794 15.7497C12.9794 15.7497 10.9344 13.7829 10.8771 13.7256C10.8198 13.6683 10.7443 13.5719 10.6296 13.5719C10.515 13.5719 10.4629 13.6526 10.403 13.7125C10.3587 13.7594 9.62929 14.5253 9.26979 14.9057C9.24895 14.9291 9.23592 14.9421 9.21769 14.9604C9.18643 15.0046 9.16559 15.0541 9.16559 15.1088C9.16559 15.1662 9.18643 15.213 9.21769 15.2573L9.29063 15.3251C9.29063 15.3251 12.9195 18.8106 12.9794 18.8705C13.0393 18.9305 13.1122 19.006 13.219 19.006C13.3233 19.006 13.4092 18.894 13.4587 18.8445L19.9479 10.5083C19.9792 10.464 20 10.4145 20 10.3572C20 10.2921 19.9739 10.2374 19.9375 10.1905Z" fill="white"/>
</svg>
