<svg width="160" height="31" viewBox="0 0 160 31" fill="none" xmlns="http://www.w3.org/2000/svg">
<path fill-rule="evenodd" clip-rule="evenodd" d="M67.3481 19.0172C65.8235 19.0172 65.1015 18.4288 65.1015 17.5195V17.4658C65.1015 16.6635 65.5561 16.075 67.2145 15.8345L67.9366 15.7275C68.9917 15.5801 69.6409 15.3859 70.2366 15.0247V16.2088C70.2366 18.001 69.1134 19.0172 67.3481 19.0172ZM67.7495 6.25903C65.6899 6.25903 63.5501 6.82082 60.9023 8.23826L62.3734 11.8758C64.6735 10.592 66.5726 10.0304 67.9634 10.0304C69.5414 10.0304 70.2366 10.6188 70.2366 11.3945V11.4478C70.2366 11.983 69.809 12.2772 68.7655 12.3842L66.9469 12.5714C62.4 13.0527 60.5276 15.0321 60.5276 17.7601V17.9473C60.5276 20.5418 62.6676 22.5747 65.6899 22.5747C67.6795 22.5747 69.4091 21.7347 70.4594 20.2513L70.7986 22.3071H74.9175V12.9726C74.9175 8.55931 72.3765 6.25903 67.7495 6.25903Z" fill="black"/>
<path fill-rule="evenodd" clip-rule="evenodd" d="M29.0203 6.36611L23.7512 1.09717L18.482 6.36611L21.1032 8.98743L7.89032 22.2003L13.1594 27.4692L18.4286 22.2003L15.8074 19.579L29.0203 6.36611Z" fill="#F04F24"/>
<mask id="mask0" mask-type="alpha" maskUnits="userSpaceOnUse" x="0" y="1" width="19" height="19">
<path d="M0 1.09692H18.482V19.5789H0V1.09692Z" fill="white"/>
</mask>
<g mask="url(#mask0)">
<path fill-rule="evenodd" clip-rule="evenodd" d="M-0.00012207 14.3098L5.26882 19.5789L18.4819 6.36604L13.2127 1.09692L-0.00012207 14.3098Z" fill="#F04F24"/>
</g>
<path fill-rule="evenodd" clip-rule="evenodd" d="M18.4284 22.2002L23.6975 27.4691L36.9104 14.2564L31.6413 8.9873L18.4284 22.2002Z" fill="#F04F24"/>
<mask id="mask1" mask-type="alpha" maskUnits="userSpaceOnUse" x="0" y="0" width="160" height="31">
<path d="M0.000427246 30.0673H159.464V0.909912H0.000427246V30.0673Z" fill="white"/>
</mask>
<g mask="url(#mask1)">
<path fill-rule="evenodd" clip-rule="evenodd" d="M77.5921 22.3073H82.2728V0.909912H77.5921V22.3073Z" fill="black"/>
<path fill-rule="evenodd" clip-rule="evenodd" d="M54.6436 14.5507C54.6436 16.9579 53.3864 18.6964 51.3002 18.6964C49.214 18.6964 47.9569 16.9579 47.9569 14.5507V14.2831C47.9569 11.8759 49.214 10.1374 51.3002 10.1374C53.3864 10.1374 54.6436 11.8759 54.6436 14.2831V14.5507ZM52.6644 6.25928C50.5364 6.25928 48.828 7.20074 47.887 8.67522L47.5289 6.52667H43.41V27.6566H48.0907V20.3326C48.9813 21.7061 50.6672 22.5748 52.6644 22.5748C56.4089 22.5748 59.4581 19.2582 59.4581 14.6845V14.1495C59.4581 9.57582 56.4089 6.25928 52.6644 6.25928Z" fill="black"/>
<path fill-rule="evenodd" clip-rule="evenodd" d="M148.765 14.5507C148.765 16.9579 147.508 18.6964 145.422 18.6964C143.335 18.6964 142.078 16.9579 142.078 14.5507V14.2831C142.078 11.8759 143.335 10.1374 145.422 10.1374C147.508 10.1374 148.765 11.8759 148.765 14.2831V14.5507ZM145.422 6.25928C140.634 6.25928 137.264 9.57582 137.264 14.1495V14.6845C137.264 19.2582 140.634 22.5748 145.422 22.5748C150.209 22.5748 153.58 19.2582 153.58 14.6845V14.1495C153.58 9.57582 150.209 6.25928 145.422 6.25928Z" fill="black"/>
<path fill-rule="evenodd" clip-rule="evenodd" d="M156.468 6.82086H157.03C157.35 6.82086 157.484 6.92782 157.484 7.16856V7.19539C157.484 7.4093 157.35 7.54309 157.03 7.54309H156.468V6.82086ZM157.993 7.22204V7.14191C157.993 6.68726 157.645 6.36621 157.03 6.36621H155.96V8.82692H156.468V7.99774H157.034L157.457 8.82692H158.02L157.497 7.85312C157.815 7.75682 157.993 7.51946 157.993 7.22204Z" fill="black"/>
<path fill-rule="evenodd" clip-rule="evenodd" d="M156.923 9.78958C155.666 9.78958 154.756 8.88027 154.756 7.59644C154.756 6.3126 155.666 5.40312 156.923 5.40312C158.18 5.40312 159.09 6.3126 159.09 7.59644C159.09 8.88027 158.18 9.78958 156.923 9.78958ZM156.923 5.05542C155.479 5.05542 154.382 6.15199 154.382 7.59644C154.382 9.0407 155.479 10.1373 156.923 10.1373C158.367 10.1373 159.464 9.0407 159.464 7.59644C159.464 6.15199 158.367 5.05542 156.923 5.05542Z" fill="black"/>
<path fill-rule="evenodd" clip-rule="evenodd" d="M118.808 22.3073H123.49V0.909912H118.808V22.3073Z" fill="black"/>
<path fill-rule="evenodd" clip-rule="evenodd" d="M132.717 18.6963C131.354 18.6963 130.845 18.0276 130.845 16.5833V10.1373H136.355V6.52653H130.845V2.91577L126.164 3.61117V17.0379C126.164 20.7022 128.036 22.5746 131.781 22.5746C133.439 22.5746 135.391 22.0663 136.996 21.157L135.66 17.8403C134.723 18.3486 133.413 18.6963 132.717 18.6963Z" fill="black"/>
<path fill-rule="evenodd" clip-rule="evenodd" d="M108.565 19.0172C107.04 19.0172 106.318 18.4288 106.318 17.5195V17.4658C106.318 16.6635 106.773 16.075 108.431 15.8345L109.153 15.7275C110.209 15.5801 110.858 15.3859 111.453 15.0247V16.2088C111.453 18.001 110.33 19.0172 108.565 19.0172ZM108.966 6.25903C106.907 6.25903 104.767 6.82082 102.119 8.23826L103.59 11.8758C105.89 10.592 107.789 10.0304 109.18 10.0304C110.758 10.0304 111.453 10.6188 111.453 11.3945V11.4478C111.453 11.983 111.026 12.2772 109.983 12.3842L108.164 12.5714C103.617 13.0527 101.744 15.0321 101.744 17.7601V17.9473C101.744 20.5418 103.884 22.5747 106.907 22.5747C108.896 22.5747 110.626 21.7347 111.676 20.2515L112.015 22.3071H116.134V12.9726C116.134 8.55931 113.593 6.25903 108.966 6.25903Z" fill="black"/>
<path fill-rule="evenodd" clip-rule="evenodd" d="M95.8601 14.5507C95.8601 16.9579 94.6029 18.6964 92.5168 18.6964C90.4306 18.6964 89.1736 16.9579 89.1736 14.5507V14.2831C89.1736 11.8759 90.4306 10.1374 92.5168 10.1374C94.6029 10.1374 95.8601 11.8759 95.8601 14.2831V14.5507ZM92.5168 6.25928C87.7291 6.25928 84.3591 9.57582 84.3591 14.1495V14.6845C84.3591 19.2582 87.7291 22.5748 92.5168 22.5748C97.3044 22.5748 100.675 19.2582 100.675 14.6845V14.1495C100.675 9.57582 97.3044 6.25928 92.5168 6.25928Z" fill="black"/>
<path fill-rule="evenodd" clip-rule="evenodd" d="M111.676 26.1013H112.875L114.531 28.285H114.547V26.1013H115.647V29.9516H114.487L112.792 27.713H112.776V29.9516H111.676V26.1013Z" fill="black"/>
<path fill-rule="evenodd" clip-rule="evenodd" d="M117.11 26.1013H120.476L120.521 27.0364H118.26V27.5646H120.036V28.4171H118.26V29.0167H120.587L120.542 29.9516H117.11V26.1013Z" fill="black"/>
<path fill-rule="evenodd" clip-rule="evenodd" d="M122.93 27.0915H121.582L121.626 26.1013H125.393L125.437 27.0915H124.09V29.9518H122.93V27.0915Z" fill="black"/>
<path fill-rule="evenodd" clip-rule="evenodd" d="M126.367 26.1013H127.598L128.225 28.7745H128.287L129.1 26.1013H130.228L131.025 28.7745H131.086L131.702 26.1013H132.879L131.867 29.9516H130.354L129.651 27.6303H129.618L128.902 29.9516H127.384L126.367 26.1013Z" fill="black"/>
<path fill-rule="evenodd" clip-rule="evenodd" d="M136.977 28.0265C136.977 27.361 136.592 26.965 135.926 26.965C135.261 26.965 134.876 27.361 134.876 28.0265C134.876 28.6921 135.261 29.0881 135.921 29.0881C136.586 29.0881 136.977 28.6921 136.977 28.0265ZM133.726 28.0265C133.726 26.7724 134.578 25.9858 135.926 25.9858C137.273 25.9858 138.126 26.7724 138.126 28.0265C138.126 29.2805 137.273 30.0671 135.926 30.0671C134.578 30.0671 133.726 29.2805 133.726 28.0265Z" fill="black"/>
<path fill-rule="evenodd" clip-rule="evenodd" d="M141.47 28.0376C141.855 28.0376 141.992 27.8229 141.992 27.5316C141.992 27.24 141.855 27.0311 141.47 27.0311H140.53V28.0376H141.47ZM139.375 26.1013H141.619C142.642 26.1013 143.142 26.5855 143.142 27.4822C143.142 28.0981 142.889 28.5162 142.394 28.7141L143.307 29.9518H141.998L141.289 28.9396H140.53V29.9518H139.375V26.1013Z" fill="black"/>
<path fill-rule="evenodd" clip-rule="evenodd" d="M144.644 26.1013H145.798V27.5205H146.271L147.399 26.1013H148.697L148.703 26.1068L147.229 27.9494L148.785 29.9461L148.779 29.9516H147.432L146.267 28.4721H145.798V29.9516H144.644V26.1013Z" fill="black"/>
<path fill-rule="evenodd" clip-rule="evenodd" d="M149.67 29.6986V28.6425H149.676C150.32 28.9671 150.947 29.1266 151.491 29.1266C151.904 29.1266 152.113 29.0275 152.113 28.8351C152.113 28.6425 151.976 28.5931 151.151 28.4609C150.248 28.3181 149.649 28.0485 149.649 27.2728C149.649 26.5524 150.281 25.9968 151.519 25.9968C152.013 25.9968 152.531 26.1013 153.009 26.3049V27.3499L153.004 27.3553C152.548 27.0913 151.931 26.9264 151.437 26.9264C150.996 26.9264 150.82 27.031 150.82 27.2069C150.82 27.4324 151.089 27.4546 151.766 27.5699C152.669 27.7239 153.268 27.9769 153.268 28.791C153.268 29.4235 152.795 30.056 151.437 30.056C150.765 30.056 150.232 29.9187 149.67 29.6986Z" fill="black"/>
</g>
</svg>
